<?xml version="1.0" encoding="utf-8"?>
<!-- Generator: Adobe Illustrator 27.5.0, SVG Export Plug-In . SVG Version: 6.00 Build 0)  -->
<svg version="1.1" xmlns="http://www.w3.org/2000/svg" xmlns:xlink="http://www.w3.org/1999/xlink" x="0px" y="0px"
	 viewBox="0 0 500 500" style="enable-background:new 0 0 500 500;" xml:space="preserve">
<g id="BACKGROUND">
	<rect style="fill:#F7F7F7;" width="500" height="500"/>
</g>
<g id="OBJECTS">
	<g>
		<path style="fill:#E9EDF4;" d="M82.384,110.028c-68.418,43.83-129.146,250.69,77.488,286.003s266.003-33.005,304.508-96.48
			c38.505-63.476-9.885-238.082-130.334-189.523C213.597,158.587,148.507,67.668,82.384,110.028z"/>
		<g>
			<ellipse style="fill:#D6DEEA;" cx="256.619" cy="412.683" rx="211.584" ry="17.917"/>
		</g>
	</g>
	<g>
		<g>
			
				<ellipse transform="matrix(0.7071 -0.7071 0.7071 0.7071 -26.0141 266.6814)" style="fill:#F3F8FA;" cx="308.906" cy="164.742" rx="90.478" ry="90.478"/>
			
				<ellipse transform="matrix(0.7071 -0.7071 0.7071 0.7071 6.9948 269.556)" style="fill:#FFFFFF;" cx="328.88" cy="126.335" rx="34.145" ry="34.145"/>
			<path style="fill:#344B7E;" d="M308.906,63.394c-55.973,0-101.348,45.375-101.348,101.348
				c0,55.973,45.375,101.348,101.348,101.348c55.973,0,101.348-45.375,101.348-101.348
				C410.254,108.769,364.879,63.394,308.906,63.394z M308.906,255.22c-49.969,0-90.478-40.508-90.478-90.478
				c0-49.969,40.508-90.478,90.478-90.478c49.969,0,90.478,40.508,90.478,90.478C399.384,214.712,358.875,255.22,308.906,255.22z"/>
			<polygon style="opacity:0.23;fill:#94C8E3;" points="305.381,169.005 311.387,169.005 308.384,115.703 			"/>
			<polygon style="fill:#94C8E3;" points="304.491,167.783 310.497,167.783 307.494,114.481 			"/>
			<polygon style="opacity:0.23;fill:#94C8E3;" points="305.563,167.464 310.108,171.391 353.975,116.032 			"/>
			<polygon style="fill:#94C8E3;" points="304.674,166.242 309.219,170.169 353.086,114.81 			"/>
			<circle style="opacity:0.23;fill:#94C8E3;" cx="307.494" cy="166.174" r="7.507"/>
			
				<ellipse transform="matrix(0.2305 -0.9731 0.9731 0.2305 72.1445 429.2807)" style="opacity:0.23;fill:#94C8E3;" cx="307.494" cy="169.025" rx="7.507" ry="7.507"/>
			<circle style="fill:#94C8E3;" cx="307.494" cy="167.783" r="7.507"/>
			<path style="opacity:0.23;fill:#94C8E3;" d="M304.147,170.065c0.584,1.927,2.692,2.876,4.319,2.413
				c2.242-0.638,3.283-3.88,1.905-5.716c-0.884-1.179-2.682-1.668-4.192-1.016C304.559,166.446,303.615,168.311,304.147,170.065z"/>
			<g>
				<g>
					<path style="fill:#94C8E3;" d="M308.906,78.972c0.441,0.721,0.661,1.441,0.829,2.162c0.155,0.721,0.228,1.441,0.229,2.162
						c0.002,0.721-0.071,1.441-0.226,2.162c-0.168,0.721-0.389,1.441-0.832,2.162c-0.443-0.721-0.665-1.441-0.832-2.162
						c-0.155-0.721-0.228-1.441-0.226-2.162c0.001-0.721,0.074-1.441,0.229-2.162C308.245,80.413,308.465,79.692,308.906,78.972z"/>
				</g>
				<g>
					<path style="fill:#94C8E3;" d="M266.02,90.463c0.742,0.404,1.293,0.918,1.799,1.458c0.495,0.547,0.918,1.134,1.279,1.758
						c0.362,0.623,0.659,1.284,0.885,1.985c0.215,0.708,0.384,1.443,0.36,2.288c-0.744-0.402-1.296-0.916-1.802-1.456
						c-0.495-0.547-0.918-1.134-1.277-1.759c-0.359-0.625-0.657-1.285-0.883-1.987C266.169,92.041,265.999,91.307,266.02,90.463z"/>
				</g>
				<g>
					<path style="fill:#94C8E3;" d="M234.626,121.857c0.845-0.022,1.578,0.149,2.287,0.363c0.702,0.226,1.362,0.524,1.987,0.883
						c0.625,0.359,1.213,0.782,1.76,1.277c0.54,0.506,1.054,1.057,1.456,1.802c-0.846,0.024-1.581-0.145-2.289-0.36
						c-0.702-0.226-1.362-0.524-1.985-0.885c-0.624-0.361-1.212-0.784-1.758-1.279C235.544,123.15,235.03,122.599,234.626,121.857z"
						/>
				</g>
				<g>
					<path style="fill:#94C8E3;" d="M223.135,164.742c0.721-0.441,1.441-0.661,2.162-0.829c0.721-0.155,1.441-0.228,2.162-0.229
						c0.721-0.002,1.441,0.071,2.162,0.226c0.721,0.168,1.441,0.389,2.162,0.832c-0.721,0.444-1.441,0.665-2.162,0.832
						c-0.721,0.155-1.441,0.228-2.162,0.226c-0.721-0.001-1.441-0.074-2.162-0.229C224.576,165.403,223.856,165.184,223.135,164.742
						z"/>
				</g>
				<g>
					<path style="fill:#94C8E3;" d="M234.626,207.628c0.404-0.742,0.918-1.293,1.458-1.799c0.547-0.495,1.135-0.918,1.758-1.279
						c0.623-0.362,1.284-0.659,1.985-0.885c0.708-0.215,1.443-0.384,2.289-0.36c-0.402,0.744-0.916,1.296-1.456,1.802
						c-0.547,0.495-1.135,0.918-1.76,1.277c-0.625,0.359-1.285,0.657-1.987,0.883C236.205,207.479,235.471,207.649,234.626,207.628z
						"/>
				</g>
				<g>
					<path style="fill:#94C8E3;" d="M266.02,239.022c-0.021-0.845,0.149-1.579,0.363-2.287c0.226-0.702,0.524-1.362,0.883-1.987
						c0.359-0.625,0.782-1.213,1.277-1.76c0.506-0.54,1.057-1.054,1.802-1.456c0.024,0.846-0.145,1.581-0.36,2.289
						c-0.226,0.702-0.524,1.362-0.885,1.985c-0.361,0.623-0.784,1.212-1.279,1.758C267.313,238.104,266.763,238.619,266.02,239.022z
						"/>
				</g>
				<g>
					<path style="fill:#94C8E3;" d="M308.906,250.513c-0.441-0.721-0.66-1.441-0.829-2.162c-0.155-0.721-0.228-1.441-0.229-2.162
						c-0.002-0.721,0.071-1.441,0.226-2.162c0.168-0.721,0.389-1.441,0.832-2.162c0.444,0.721,0.665,1.441,0.832,2.162
						c0.155,0.721,0.228,1.441,0.226,2.162c-0.001,0.721-0.073,1.441-0.229,2.162C309.566,249.072,309.347,249.793,308.906,250.513z
						"/>
				</g>
				<g>
					<path style="fill:#94C8E3;" d="M351.791,239.022c-0.742-0.404-1.293-0.918-1.799-1.458c-0.495-0.546-0.918-1.135-1.279-1.758
						c-0.362-0.623-0.659-1.284-0.885-1.985c-0.215-0.708-0.384-1.443-0.36-2.289c0.744,0.402,1.296,0.916,1.802,1.456
						c0.495,0.547,0.918,1.135,1.277,1.76c0.359,0.625,0.657,1.285,0.883,1.987C351.643,237.444,351.813,238.178,351.791,239.022z"
						/>
				</g>
				<g>
					<path style="fill:#94C8E3;" d="M383.186,207.628c-0.845,0.021-1.579-0.149-2.287-0.363c-0.702-0.226-1.362-0.524-1.987-0.883
						c-0.625-0.359-1.213-0.782-1.759-1.277c-0.54-0.506-1.054-1.058-1.456-1.802c0.846-0.024,1.581,0.145,2.289,0.36
						c0.702,0.226,1.362,0.524,1.985,0.885c0.624,0.361,1.212,0.784,1.758,1.279C382.268,206.335,382.782,206.886,383.186,207.628z"
						/>
				</g>
				<g>
					<path style="fill:#94C8E3;" d="M394.677,164.742c-0.721,0.441-1.441,0.661-2.162,0.829c-0.721,0.155-1.441,0.228-2.162,0.229
						c-0.721,0.002-1.441-0.071-2.162-0.226c-0.721-0.168-1.441-0.389-2.162-0.832c0.721-0.443,1.441-0.665,2.162-0.832
						c0.721-0.155,1.441-0.228,2.162-0.226c0.721,0.001,1.441,0.073,2.162,0.229C393.235,164.082,393.956,164.302,394.677,164.742z"
						/>
				</g>
				<g>
					<path style="fill:#94C8E3;" d="M383.186,121.857c-0.404,0.742-0.918,1.293-1.458,1.799c-0.547,0.495-1.135,0.918-1.758,1.279
						c-0.623,0.362-1.284,0.659-1.985,0.885c-0.708,0.215-1.443,0.384-2.289,0.36c0.402-0.744,0.916-1.296,1.456-1.802
						c0.547-0.495,1.134-0.918,1.759-1.277c0.625-0.359,1.285-0.657,1.987-0.883C381.607,122.006,382.341,121.836,383.186,121.857z"
						/>
				</g>
				<g>
					<path style="fill:#94C8E3;" d="M351.791,90.463c0.022,0.845-0.149,1.579-0.363,2.287c-0.226,0.702-0.524,1.362-0.883,1.987
						c-0.359,0.625-0.782,1.213-1.277,1.759c-0.506,0.54-1.058,1.054-1.802,1.456c-0.024-0.846,0.145-1.581,0.36-2.288
						c0.226-0.702,0.524-1.362,0.885-1.985c0.361-0.624,0.784-1.212,1.279-1.758C350.499,91.381,351.049,90.866,351.791,90.463z"/>
				</g>
			</g>
			<path style="opacity:0.23;fill:#94C8E3;" d="M308.906,78.961c49.153,0,89.151,39.196,90.444,88.037
				c0.02-0.75,0.034-1.501,0.034-2.256c0-49.969-40.508-90.478-90.478-90.478c-49.969,0-90.478,40.508-90.478,90.478
				c0,0.755,0.014,1.506,0.034,2.256C219.755,118.157,259.753,78.961,308.906,78.961z"/>
			<path style="fill:#4C649E;" d="M304.147,168.858c0.584,1.927,2.692,2.876,4.319,2.413c2.242-0.638,3.283-3.879,1.905-5.716
				c-0.884-1.179-2.682-1.668-4.192-1.016C304.559,165.239,303.615,167.104,304.147,168.858z"/>
			<g>
				<path style="fill:#94C8E3;" d="M328.88,68.078c6.705,1.137,13.228,3.261,19.48,5.951c6.263,2.688,12.203,6.108,17.768,10.045
					c2.76,2.004,5.396,4.173,7.932,6.45c2.503,2.315,4.909,4.736,7.126,7.326c4.446,5.168,8.217,10.896,11.284,16.959
					c-1.678-2.954-3.412-5.877-5.406-8.622c-1.912-2.801-4.061-5.43-6.287-7.979c-2.267-2.517-4.64-4.933-7.148-7.208
					c-2.532-2.246-5.163-4.38-7.913-6.354c-5.492-3.957-11.394-7.344-17.575-10.123c-3.085-1.401-6.242-2.648-9.457-3.726
					C335.476,69.703,332.214,68.736,328.88,68.078z"/>
			</g>
			<g>
				<path style="fill:#94C8E3;" d="M307.365,259.408c-6.8,0.097-13.599-0.81-20.236-2.322c-6.646-1.509-13.108-3.796-19.294-6.659
					c-3.077-1.471-6.063-3.126-8.97-4.906c-2.881-1.823-5.686-3.769-8.336-5.914c-5.309-4.277-10.056-9.227-14.171-14.633
					c2.185,2.601,4.421,5.161,6.879,7.5c2.388,2.408,4.978,4.604,7.629,6.708c2.685,2.064,5.457,4.011,8.336,5.793
					c2.897,1.75,5.872,3.372,8.934,4.815c6.118,2.896,12.537,5.158,19.118,6.771c3.288,0.818,6.619,1.473,9.976,1.95
					C300.583,259.006,303.967,259.365,307.365,259.408z"/>
			</g>
		</g>
		<g>
			<g>
				<path style="fill:#EEC542;" d="M118.738,132.79h31.908l29.199,12.87c-4.945,11.212-16.157,19.037-29.199,19.037
					C133.023,164.698,118.738,150.412,118.738,132.79z"/>
				<path style="fill:#F99595;" d="M150.646,100.078c6.417,0,12.399,1.894,17.401,5.167l-17.401,26.741h-31.908
					C118.738,114.364,133.023,100.078,150.646,100.078z"/>
				<path style="fill:#60A2F4;" d="M173.54,104.451c0.264,0.164,0.522,0.343,0.779,0.522c8.297,5.76,13.728,15.357,13.728,26.219
					c0,4.581-0.965,8.933-2.708,12.87l-29.199-12.87L173.54,104.451z"/>
			</g>
			<g>
				<g>
					<g>
						<g>
							<path style="fill:#FF901B;" d="M438.159,216.246h-35.513c-4.741,0-8.584-3.843-8.584-8.584l0,0
								c0-4.741,3.843-8.584,8.584-8.584h35.513c4.741,0,8.584,3.843,8.584,8.584l0,0
								C446.743,212.403,442.9,216.246,438.159,216.246z"/>
						</g>
						<g>
							<path style="fill:#FFFFFF;" d="M413.178,207.685c0.004,1.213-0.976,2.199-2.189,2.203c-1.213,0.004-2.199-0.976-2.203-2.189
								c-0.004-1.213,0.976-2.199,2.189-2.203C412.188,205.492,413.174,206.472,413.178,207.685z"/>
							<path style="fill:#FFFFFF;" d="M422.599,207.655c0.004,1.213-0.977,2.199-2.19,2.203c-1.213,0.004-2.199-0.977-2.203-2.189
								c-0.004-1.213,0.977-2.199,2.189-2.203C421.608,205.462,422.595,206.442,422.599,207.655z"/>
							<path style="fill:#FFFFFF;" d="M432.019,207.626c0.004,1.213-0.976,2.199-2.189,2.203c-1.213,0.004-2.199-0.976-2.203-2.189
								c-0.004-1.213,0.976-2.199,2.189-2.203C431.029,205.433,432.015,206.413,432.019,207.626z"/>
						</g>
					</g>
				</g>
			</g>
			<g>
				<g>
					<g>
						<g>
							<path style="fill:#60A2F4;" d="M462.711,173.99h-33.425c-2.957,0-5.355-2.397-5.355-5.355v-28.655
								c0-2.308,1.871-4.178,4.178-4.178h34.602c2.308,0,4.179,1.871,4.179,4.178v29.831
								C466.89,172.12,465.019,173.99,462.711,173.99z"/>
						</g>
					</g>
				</g>
				<g>
					<g>
						<g>
							<path style="fill:#F9F9F9;" d="M441.865,163.133c3.644,0.062,7.334,0.112,10.685-0.12c1.061-0.074,1.978-1.759,0.689-2.291
								c0.542-0.278,1.091-0.546,1.329-1.154c0.224-0.576-0.045-1.357-0.645-1.505c1.264,0.313,1.762-1.693,0.776-2.34
								c0.522-0.444,0.956-1.032,1.066-1.709c0.11-0.677-0.167-1.44-0.769-1.768c-0.395-0.215-0.865-0.223-1.314-0.227
								c-1.516-0.011-3.031-0.023-4.547-0.034c0.411-2.372,0.534-4.956-0.671-7.039c-0.363-0.628-1.338-1.38-2.113-0.897
								c-0.726,0.453-0.524,1.578-0.488,2.287c0.152,2.95-1.527,5.918-4.133,7.308C441.73,153.643,441.902,159.927,441.865,163.133z
								"/>
						</g>
					</g>
					<rect x="435.035" y="153.643" style="fill:#F9F9F9;" width="5.508" height="9.481"/>
				</g>
			</g>
			<g>
				<g>
					
						<ellipse transform="matrix(0.2266 -0.974 0.974 0.2266 -124.9001 192.5487)" style="fill:#DD9E10;" cx="58.797" cy="174.923" rx="22.381" ry="22.381"/>
					
						<ellipse transform="matrix(0.2267 -0.974 0.974 0.2267 -124.902 192.5297)" style="fill:#F4B516;" cx="58.797" cy="174.923" rx="18.178" ry="18.178"/>
					<g>
						<path style="fill:#F7F7F7;" d="M60.244,184.352v3.124h-2.789v-3.04c-2.761-0.167-5.411-1.032-6.945-2.231l1.534-3.403
							c1.394,1.032,3.402,1.785,5.411,1.98v-4.658c-3.096-0.753-6.555-1.785-6.555-5.773c0-2.957,2.148-5.495,6.555-5.997v-3.096
							h2.789v3.04c2.092,0.167,4.128,0.725,5.662,1.701l-1.394,3.431c-1.423-0.809-2.873-1.283-4.267-1.451v4.741
							c3.096,0.725,6.498,1.757,6.498,5.69C66.742,181.312,64.623,183.823,60.244,184.352z M57.455,172.025v-3.96
							c-1.478,0.335-2.064,1.143-2.064,2.064C55.39,171.104,56.227,171.634,57.455,172.025z M62.252,178.746
							c0-0.976-0.809-1.506-2.008-1.924v3.849C61.638,180.364,62.252,179.639,62.252,178.746z"/>
					</g>
				</g>
				<g>
					<circle style="fill:#DD9E10;" cx="33.913" cy="215.712" r="12.272"/>
					
						<ellipse transform="matrix(0.7071 -0.7071 0.7071 0.7071 -142.599 87.1605)" style="fill:#F4B516;" cx="33.913" cy="215.713" rx="9.967" ry="9.967"/>
					<g>
						<path style="fill:#F7F7F7;" d="M34.706,220.882v1.713h-1.529v-1.667c-1.514-0.092-2.967-0.566-3.808-1.223l0.841-1.866
							c0.764,0.566,1.865,0.979,2.967,1.086v-2.554c-1.698-0.413-3.594-0.979-3.594-3.165c0-1.621,1.178-3.013,3.594-3.288v-1.698
							h1.529v1.667c1.147,0.092,2.263,0.398,3.104,0.933l-0.764,1.881c-0.78-0.443-1.575-0.704-2.34-0.795v2.6
							c1.697,0.398,3.563,0.963,3.563,3.12C38.269,219.216,37.107,220.592,34.706,220.882z M33.177,214.123v-2.171
							c-0.811,0.183-1.132,0.627-1.132,1.132C32.045,213.618,32.504,213.909,33.177,214.123z M35.807,217.809
							c0-0.535-0.444-0.826-1.101-1.055v2.11C35.47,218.696,35.807,218.298,35.807,217.809z"/>
					</g>
				</g>
				<g>
					
						<ellipse transform="matrix(0.7071 -0.7071 0.7071 0.7071 -127.6823 111.5011)" style="fill:#DD9E10;" cx="70.753" cy="209.877" rx="8.14" ry="8.14"/>
					<path style="fill:#F4B516;" d="M77.364,209.877c0,3.652-2.96,6.612-6.612,6.612c-3.652,0-6.612-2.96-6.612-6.612
						c0-3.651,2.96-6.612,6.612-6.612C74.404,203.265,77.364,206.225,77.364,209.877z"/>
					<g>
						<path style="fill:#F7F7F7;" d="M71.279,213.306v1.136h-1.014v-1.106c-1.004-0.061-1.968-0.375-2.526-0.811l0.558-1.238
							c0.507,0.375,1.237,0.649,1.968,0.72v-1.694c-1.126-0.274-2.384-0.649-2.384-2.1c0-1.075,0.781-1.999,2.384-2.181v-1.126
							h1.014v1.106c0.761,0.061,1.501,0.264,2.059,0.619l-0.507,1.248c-0.517-0.294-1.045-0.467-1.552-0.528v1.725
							c1.126,0.264,2.364,0.639,2.364,2.069C73.642,212.201,72.871,213.113,71.279,213.306z M70.264,208.822v-1.44
							c-0.538,0.122-0.751,0.416-0.751,0.751C69.514,208.488,69.818,208.68,70.264,208.822z M72.009,211.267
							c0-0.355-0.294-0.548-0.73-0.7v1.4C71.786,211.856,72.009,211.592,72.009,211.267z"/>
					</g>
				</g>
			</g>
		</g>
	</g>
	<g>
		<g>
			<g>
				<path style="fill:#FC8D2A;" d="M428.008,339.357c0,0-10.873-3.435-20.537-8.546l-0.499-4.024l-3.155,1.957
					c-7.458-4.503-13.069-9.984-10.244-15.485c2.875-5.581,9.315-6.609,15.865-3.834l0.479,4.882l3.255-2.896
					C420.65,316.244,427.379,325.948,428.008,339.357z"/>
				<path style="fill:none;stroke:#080808;stroke-width:0.9984;stroke-miterlimit:10;" d="M395.653,314.303
					c0,0,28.372,3.078,36.109,36.026"/>
			</g>
			<g>
				<path style="fill:#FC8D2A;" d="M433.949,325.998c0,0-10.054-11.981-22.634-25.41l2.396-5.921c0,0-3.854,0.439-7.019,0.859
					c-10.962-13.209-5.491-22.474-3.135-25.07c2.087-2.296,12.86-8.407,23.882,2.406l-0.669,5.831h5.441
					c0.589,0.859,1.168,1.767,1.737,2.746C446.858,303.404,433.949,325.998,433.949,325.998z"/>
				<path style="fill:none;stroke:#080808;stroke-width:0.9984;stroke-miterlimit:10;" d="M406.303,270.456
					c0,0,24.794,19.386,26.791,43.847c1.997,24.461,2.053,41.767,2.053,41.767"/>
			</g>
			<g>
				<path style="fill:#FC8D2A;" d="M464.061,318.43l-3.684-0.629l0.998,2.905c-13.618,11.272-15.246,10.114-20.727,17.163
					c0,0-6.2-22.594,7.808-35.284l4.103,1.398l-0.539-4.123C469.422,288.657,478.448,305.511,464.061,318.43z"/>
				<path style="fill:none;stroke:#080808;stroke-width:0.9984;stroke-miterlimit:10;" d="M467.955,300.159
					c0,0-26.957,10.733-29.204,51.668"/>
			</g>
		</g>
		<g>
			<path style="fill:#070707;" d="M459.718,345.916h-49.252c0,0-2.177,18.82,2.156,34.525v21.686c0,2.087,1.218,4.014,3.105,4.902
				c0.968,0.459,1.877,0.689,2.716,0.689c0.819,0,1.568-0.22,2.216-0.649c1.867-1.238,2.955-4.203,3.255-8.856
				c3.035,1.957,6.719,3.105,11.172,3.115c5.172,0.01,9.315-1.468,12.63-3.954c0.22,5.132,1.328,8.377,3.295,9.695
				c0.659,0.429,1.408,0.649,2.216,0.649c0.849,0,1.757-0.23,2.726-0.689c1.877-0.889,3.095-2.815,3.095-4.902V375.04h-0.03
				C461.585,360.733,459.718,345.916,459.718,345.916z M420.111,406.241c-1.028,0.679-2.366,0.649-3.954-0.11
				c-1.538-0.729-2.536-2.306-2.536-4.004v-18.481c1.967,5.661,4.932,10.683,9.335,13.898
				C422.687,403.225,421.329,405.432,420.111,406.241z M458.05,402.127c0,1.697-0.988,3.275-2.526,4.004
				c-1.597,0.759-2.925,0.789-3.964,0.11c-1.288-0.859-2.716-3.255-2.865-9.655c4.752-4.054,7.638-10.284,9.355-17.013V402.127z"/>
			<rect x="407.8" y="341.76" style="fill:#2A2832;" width="54.58" height="8.32"/>
		</g>
	</g>
	<g>
		<g>
			<g>
				<g>
					<g>
						<polygon style="fill:#EBBA9A;" points="475.201,366.714 464.331,357.37 457.092,364.367 470.06,375.143 475.992,369.909 
													"/>
						<g>
							<g>
								<path d="M475.07,365.767c0,0-2.104,8.064-8.273,7.95l-1.486,18.001l17.552-23.312L475.07,365.767z"/>
								
									<rect x="460.51" y="379.557" transform="matrix(0.6015 -0.7989 0.7989 0.6015 -114.8994 531.3194)" style="fill:#BDB6BF;" width="29.181" height="2.537"/>
							</g>
						</g>
					</g>
					<g>
						<polygon style="fill:#304573;" points="429.942,304.558 450.262,339.138 472.725,359.417 461.183,371.9 433.645,345.751 
							420.402,323.736 						"/>
						<polygon style="fill:#5B76A5;" points="461.38,372.695 473.773,359.011 467.196,353.158 454.988,367.375 						"/>
					</g>
				</g>
				<g>
					<g>
						<polygon style="fill:#EBBA9A;" points="410.939,399.06 412.577,384.82 402.724,382.752 401.077,399.532 408.738,401.506 
													"/>
						<g>
							<g>
								<path d="M411.65,398.42c0,0-7.856,2.782-11.223-2.389l-15.736,8.867l28.965,1.254L411.65,398.42z"/>
								
									<rect x="397.932" y="392.301" transform="matrix(0.0498 -0.9988 0.9988 0.0498 -27.0796 785.319)" style="fill:#BDB6BF;" width="2.537" height="29.181"/>
							</g>
						</g>
					</g>
					<g>
						<g>
							<path style="fill:#344B7E;" d="M409.754,299.55l2.615,8.468l-11.639,41.285l-2.303,41.974l15.31,1.247l3.407-38.84
								l16.007-42.466c0,0,5.366-14.327-8.487-21.181L409.754,299.55z"/>
							
								<line style="fill:none;stroke:#3459A5;stroke-width:1.1226;stroke-miterlimit:10;" x1="425.339" y1="331.943" x2="433.426" y2="310.487"/>
						</g>
						<polygon style="fill:#5B76A5;" points="397.275,391.253 415.13,392.868 415.74,384.086 397.576,382.943 						"/>
					</g>
				</g>
			</g>
			<g>
				<g>
					<g>
						<path style="fill:#DCA686;" d="M398.761,269.522l-8.014,10.719l-17.41-12.12l-3.197,3.309c0,0,9.487,14.314,18.106,20.361
							c1.502,1.053,3.526,0.954,4.96-0.19c2.937-2.345,8.209-7.305,13.914-16.259L398.761,269.522z"/>
						<path style="fill:#C47A7A;" d="M396.356,272.739l11.853,10.622l5.848-8.276c2.387-3.378,1.764-8.024-1.426-10.655l0,0
							c-3.603-2.971-9-2.517-11.603,1.36L396.356,272.739z"/>
					</g>
				</g>
				<path style="fill:#F99595;" d="M401.027,265.789l10.92-7.98c0,0,13.395,6.129,12.717,32.229l-14.91,9.513
					c0,0-3.281-6.154-5.923-13.716C394.93,279.057,401.027,265.789,401.027,265.789z"/>
				<g>
					<path style="fill:#EEC542;" d="M99.387,404.898h265.096c7.418,0,13.432-6.014,13.432-13.432v-190.97
						c0-7.418-6.014-13.432-13.432-13.432H99.387c-7.418,0-13.432,6.014-13.432,13.432v190.97
						C85.954,398.884,91.968,404.898,99.387,404.898z"/>
					<path style="fill:#F7F7F7;" d="M105.438,392.227h252.993c4.664,0,8.445-3.781,8.445-8.445v-160.68H96.993v160.68
						C96.993,388.446,100.774,392.227,105.438,392.227z"/>
					<g>
						<g>
							<g>
								<path style="fill:#EBBA9A;" d="M402.89,273.126l-5.623,13.643l-19.352-8.684l-2.275,3.999c0,0,12.745,11.509,22.596,15.225
									c1.716,0.647,3.653,0.048,4.757-1.417c2.262-3.001,6.137-9.115,9.44-19.205L402.89,273.126z"/>
								<path style="fill:#EBBA9A;" d="M365.402,276.988c0.141-0.288,0.486-0.436,0.805-0.345l2.683,0.71
									c0.043-0.062,0.088-0.126,0.133-0.191l-3.089-1.645c-0.372-0.198-0.514-0.635-0.326-1.001c0.2-0.39,0.697-0.556,1.106-0.368
									l3.344,1.535c0.061-0.087,0.122-0.174,0.183-0.261l-3.534-2.645c-0.281-0.217-0.35-0.597-0.162-0.896
									c0.216-0.345,0.69-0.456,1.045-0.245l3.768,2.203v0.001c0.074-0.104,0.144-0.202,0.213-0.299l-2.435-2.343
									c-0.261-0.251-0.281-0.648-0.047-0.928c0.27-0.323,0.772-0.367,1.092-0.095l2.383,2.03c0.006,0.053,0.978,1.128,2.091,2.344
									l-0.317-2.635c-0.031-0.258,0.105-0.511,0.346-0.642c0.37-0.201,0.837-0.045,0.983,0.328
									c0.603,1.548,1.948,6.226,2.248,6.484l-2.275,3.999l-7.795-3.229l-2.159-1.058
									C365.379,277.643,365.255,277.289,365.402,276.988z"/>
							</g>
							<path style="fill:#EFAFAF;" d="M401.169,276.741l14.31,7.443l3.608-9.469c1.473-3.865-0.284-8.211-4.029-9.967l0,0
								c-4.228-1.983-9.245,0.115-10.803,4.518L401.169,276.741z"/>
							<polyline style="fill:none;stroke:#D18484;stroke-width:0.8141;stroke-miterlimit:10;" points="410.572,281.839 
								415.479,284.185 419.087,274.715 							"/>
							
								<line style="fill:none;stroke:#D18484;stroke-width:0.8141;stroke-miterlimit:10;" x1="401.169" y1="276.741" x2="404.773" y2="268.121"/>
						</g>
					</g>
				</g>
			</g>
			<g>
				<path style="fill:#1F2326;" d="M400.898,247.491l-6.395-1.291c-4.193,2.734-4.503,9.828-4.503,9.828l10.978-0.548
					L400.898,247.491z"/>
				<polygon style="fill:#EBBA9A;" points="398.999,252.318 402.912,262.271 411.978,258.036 406.085,243.085 				"/>
				<path style="fill:#DCA686;" d="M401.29,258.146c-0.068-0.174,1.427-6.391,1.427-6.391l-3.754,1.947L401.29,258.146z"/>
				<g>
					<path style="fill:#EBBA9A;" d="M395.199,231.427c0,0-4.764,1.041-4.724,7.097c0,0,0.078,4.388,0.242,10.703
						c0.086,3.337,3.244,5.891,6.463,5.008c1.972-0.54,4.153-1.479,6.048-3.099l2.652-2.742c6.122-7.581-0.404-18.893-9.984-17.111
						C395.667,231.327,395.435,231.374,395.199,231.427z"/>
					<path style="fill:#EBBA9A;" d="M391.31,244.781l-2.086,2.189c-0.286,0.301-0.089,0.799,0.326,0.822l2.194,0.123L391.31,244.781
						z"/>
				</g>
				<path style="fill:#1F2326;" d="M402.137,241.942c0,0,2.113-14.822-10.264-8.217c0,0,4.514-8.272,15.908-3.978
					c2.386,0.899,4.949,3.631,5.508,6.118c0.905,4.025-1.179,7.604-4.467,14.165l-4.495-4.721
					C404.024,244.305,402.137,241.942,402.137,241.942z"/>
				<path style="fill:#1F2326;" d="M405.998,237.433l-2.236,6.18c-16.491-4.259-9.466-12.23-9.466-12.23
					S407.232,226.827,405.998,237.433z"/>
				<polygon style="fill:#1F2326;" points="397.987,240.73 400.435,244.009 403.093,239.901 				"/>
				<path style="fill:#1F2326;" d="M396.678,232.067c0,0-5.513,1.205-6.125,5.104c0,0-4.611-4.295,4.353-6.624
					C400.243,229.16,396.678,232.067,396.678,232.067z"/>
				<path style="fill:#1F2326;" d="M403.275,245.362c0,0,1.413,7.306,0.85,9.961l13.558-1.416c0,0-2.745-4.671-3.136-8.34
					c-0.31-2.907,0.836-9.635-3.885-13.925l-1.807,8.851L403.275,245.362z"/>
				<g>
					<path style="fill:#EBBA9A;" d="M406.753,243.719c0.233,1.76-1.005,3.375-2.765,3.607c-1.76,0.233-3.375-1.005-3.607-2.765
						c-0.233-1.76,1.005-3.375,2.765-3.607C404.905,240.721,406.52,241.959,406.753,243.719z"/>
				</g>
				<path style="fill:#EBBA9A;" d="M412.71,258.785c0,0-3.738,6.836-11.684,7.005l4.361-8.802l5.353-1.414L412.71,258.785z"/>
				<path id="XMLID_22_" style="fill:none;stroke:#2C295C;stroke-width:0.5624;stroke-linecap:round;stroke-miterlimit:10;" d="
					M394.387,239.369c0,0-1.961-1.243-3.678,0.184"/>
				<path id="XMLID_11_" style="fill:#2C295C;" d="M393.119,241.628c0.034,0.677-0.3,1.244-0.746,1.266
					c-0.446,0.022-0.835-0.509-0.869-1.186c-0.034-0.677,0.301-1.244,0.747-1.266C392.696,240.42,393.085,240.951,393.119,241.628z"
					/>
				<path style="fill:#FFFFFF;" d="M390.709,248.918c0,0,2.327-0.056,3.678-1.564c0,0-1.634,3.462-3.414,3.366L390.709,248.918z"/>
			</g>
			<g>
				<g>
					<circle style="fill:#F7F7F7;" cx="120.008" cy="209.04" r="9.815"/>
					
						<line style="fill:none;stroke:#365FE5;stroke-width:9.2985;stroke-linecap:round;stroke-miterlimit:10;" x1="120.007" y1="177.442" x2="120.007" y2="207.662"/>
				</g>
				<g>
					<circle style="fill:#F7F7F7;" cx="164.778" cy="209.04" r="9.815"/>
					
						<line style="fill:none;stroke:#365FE5;stroke-width:9.2985;stroke-linecap:round;stroke-miterlimit:10;" x1="164.778" y1="177.442" x2="164.778" y2="207.662"/>
				</g>
				<g>
					<circle style="fill:#F7F7F7;" cx="209.549" cy="209.04" r="9.815"/>
					
						<line style="fill:none;stroke:#365FE5;stroke-width:9.2985;stroke-linecap:round;stroke-miterlimit:10;" x1="209.549" y1="177.442" x2="209.549" y2="207.662"/>
				</g>
				<g>
					<circle style="fill:#F7F7F7;" cx="254.32" cy="209.04" r="9.815"/>
					
						<line style="fill:none;stroke:#365FE5;stroke-width:9.2985;stroke-linecap:round;stroke-miterlimit:10;" x1="254.32" y1="177.442" x2="254.32" y2="207.662"/>
				</g>
				<g>
					<circle style="fill:#F7F7F7;" cx="299.091" cy="209.04" r="9.815"/>
					
						<line style="fill:none;stroke:#365FE5;stroke-width:9.2985;stroke-linecap:round;stroke-miterlimit:10;" x1="299.091" y1="177.442" x2="299.091" y2="207.662"/>
				</g>
				<g>
					<circle style="fill:#F7F7F7;" cx="343.861" cy="209.04" r="9.815"/>
					
						<line style="fill:none;stroke:#365FE5;stroke-width:9.2985;stroke-linecap:round;stroke-miterlimit:10;" x1="343.861" y1="177.442" x2="343.861" y2="207.662"/>
				</g>
			</g>
		</g>
		<g>
			<g>
				<g>
					<g>
						
							<line style="fill:none;stroke:#D1D7E0;stroke-width:1.0332;stroke-miterlimit:10;" x1="142.949" y1="234.266" x2="169.904" y2="234.266"/>
						
							<line style="fill:none;stroke:#D1D7E0;stroke-width:1.0332;stroke-miterlimit:10;" x1="142.949" y1="239.4" x2="169.904" y2="239.4"/>
						
							<line style="fill:none;stroke:#D1D7E0;stroke-width:1.0332;stroke-miterlimit:10;" x1="142.949" y1="244.533" x2="169.904" y2="244.533"/>
						
							<line style="fill:none;stroke:#D1D7E0;stroke-width:1.0332;stroke-miterlimit:10;" x1="142.949" y1="249.667" x2="169.904" y2="249.667"/>
						
							<line style="fill:none;stroke:#D1D7E0;stroke-width:1.0332;stroke-miterlimit:10;" x1="142.949" y1="254.801" x2="169.904" y2="254.801"/>
						
							<line style="fill:none;stroke:#D1D7E0;stroke-width:1.0332;stroke-miterlimit:10;" x1="142.949" y1="259.934" x2="169.904" y2="259.934"/>
						
							<line style="fill:none;stroke:#D1D7E0;stroke-width:1.0332;stroke-miterlimit:10;" x1="142.949" y1="265.068" x2="169.904" y2="265.068"/>
						
							<line style="fill:none;stroke:#D1D7E0;stroke-width:1.0332;stroke-miterlimit:10;" x1="142.949" y1="270.202" x2="160.11" y2="270.202"/>
					</g>
					<g>
						
							<line style="fill:none;stroke:#D1D7E0;stroke-width:1.0332;stroke-miterlimit:10;" x1="106.392" y1="270.734" x2="133.347" y2="270.734"/>
						
							<line style="fill:none;stroke:#D1D7E0;stroke-width:1.0332;stroke-miterlimit:10;" x1="106.392" y1="275.868" x2="133.347" y2="275.868"/>
						
							<line style="fill:none;stroke:#D1D7E0;stroke-width:1.0332;stroke-miterlimit:10;" x1="106.392" y1="281.002" x2="133.347" y2="281.002"/>
						
							<line style="fill:none;stroke:#D1D7E0;stroke-width:1.0332;stroke-miterlimit:10;" x1="106.392" y1="286.135" x2="133.347" y2="286.135"/>
						
							<line style="fill:none;stroke:#D1D7E0;stroke-width:1.0332;stroke-miterlimit:10;" x1="106.392" y1="291.269" x2="133.347" y2="291.269"/>
						
							<line style="fill:none;stroke:#D1D7E0;stroke-width:1.0332;stroke-miterlimit:10;" x1="106.392" y1="296.403" x2="133.347" y2="296.403"/>
						
							<line style="fill:none;stroke:#D1D7E0;stroke-width:1.0332;stroke-miterlimit:10;" x1="106.392" y1="301.536" x2="133.347" y2="301.536"/>
						
							<line style="fill:none;stroke:#D1D7E0;stroke-width:1.0332;stroke-miterlimit:10;" x1="106.392" y1="306.67" x2="123.553" y2="306.67"/>
					</g>
					<g>
						
							<line style="fill:none;stroke:#D1D7E0;stroke-width:1.0332;stroke-miterlimit:10;" x1="183.489" y1="282.332" x2="210.443" y2="282.332"/>
						
							<line style="fill:none;stroke:#D1D7E0;stroke-width:1.0332;stroke-miterlimit:10;" x1="183.489" y1="287.466" x2="210.443" y2="287.466"/>
						
							<line style="fill:none;stroke:#D1D7E0;stroke-width:1.0332;stroke-miterlimit:10;" x1="183.489" y1="292.599" x2="210.443" y2="292.599"/>
						
							<line style="fill:none;stroke:#D1D7E0;stroke-width:1.0332;stroke-miterlimit:10;" x1="183.489" y1="297.733" x2="210.443" y2="297.733"/>
						
							<line style="fill:none;stroke:#D1D7E0;stroke-width:1.0332;stroke-miterlimit:10;" x1="183.489" y1="302.866" x2="210.443" y2="302.866"/>
						
							<line style="fill:none;stroke:#D1D7E0;stroke-width:1.0332;stroke-miterlimit:10;" x1="183.489" y1="308" x2="210.443" y2="308"/>
						
							<line style="fill:none;stroke:#D1D7E0;stroke-width:1.0332;stroke-miterlimit:10;" x1="183.489" y1="313.134" x2="210.443" y2="313.134"/>
						
							<line style="fill:none;stroke:#D1D7E0;stroke-width:1.0332;stroke-miterlimit:10;" x1="183.489" y1="318.267" x2="200.65" y2="318.267"/>
					</g>
					<g>
						
							<line style="fill:none;stroke:#D1D7E0;stroke-width:1.0332;stroke-miterlimit:10;" x1="218.457" y1="305.619" x2="245.412" y2="305.619"/>
						
							<line style="fill:none;stroke:#D1D7E0;stroke-width:1.0332;stroke-miterlimit:10;" x1="218.457" y1="310.752" x2="245.412" y2="310.752"/>
						
							<line style="fill:none;stroke:#D1D7E0;stroke-width:1.0332;stroke-miterlimit:10;" x1="218.457" y1="315.886" x2="245.412" y2="315.886"/>
						
							<line style="fill:none;stroke:#D1D7E0;stroke-width:1.0332;stroke-miterlimit:10;" x1="218.457" y1="321.02" x2="245.412" y2="321.02"/>
						
							<line style="fill:none;stroke:#D1D7E0;stroke-width:1.0332;stroke-miterlimit:10;" x1="218.457" y1="326.153" x2="245.412" y2="326.153"/>
						
							<line style="fill:none;stroke:#D1D7E0;stroke-width:1.0332;stroke-miterlimit:10;" x1="218.457" y1="331.287" x2="245.412" y2="331.287"/>
						
							<line style="fill:none;stroke:#D1D7E0;stroke-width:1.0332;stroke-miterlimit:10;" x1="218.457" y1="336.421" x2="245.412" y2="336.421"/>
						
							<line style="fill:none;stroke:#D1D7E0;stroke-width:1.0332;stroke-miterlimit:10;" x1="218.457" y1="341.554" x2="235.618" y2="341.554"/>
					</g>
					<g>
						
							<line style="fill:none;stroke:#D1D7E0;stroke-width:1.0332;stroke-miterlimit:10;" x1="257.839" y1="278.435" x2="284.794" y2="278.435"/>
						
							<line style="fill:none;stroke:#D1D7E0;stroke-width:1.0332;stroke-miterlimit:10;" x1="257.839" y1="283.569" x2="284.794" y2="283.569"/>
						
							<line style="fill:none;stroke:#D1D7E0;stroke-width:1.0332;stroke-miterlimit:10;" x1="257.839" y1="288.702" x2="284.794" y2="288.702"/>
						
							<line style="fill:none;stroke:#D1D7E0;stroke-width:1.0332;stroke-miterlimit:10;" x1="257.839" y1="293.836" x2="284.794" y2="293.836"/>
						
							<line style="fill:none;stroke:#D1D7E0;stroke-width:1.0332;stroke-miterlimit:10;" x1="257.839" y1="298.97" x2="284.794" y2="298.97"/>
						
							<line style="fill:none;stroke:#D1D7E0;stroke-width:1.0332;stroke-miterlimit:10;" x1="257.839" y1="304.103" x2="284.794" y2="304.103"/>
						
							<line style="fill:none;stroke:#D1D7E0;stroke-width:1.0332;stroke-miterlimit:10;" x1="257.839" y1="309.237" x2="284.794" y2="309.237"/>
						
							<line style="fill:none;stroke:#D1D7E0;stroke-width:1.0332;stroke-miterlimit:10;" x1="257.839" y1="314.37" x2="275" y2="314.37"/>
					</g>
					<g>
						
							<line style="fill:none;stroke:#D1D7E0;stroke-width:1.0332;stroke-miterlimit:10;" x1="293.772" y1="236.833" x2="320.726" y2="236.833"/>
						
							<line style="fill:none;stroke:#D1D7E0;stroke-width:1.0332;stroke-miterlimit:10;" x1="293.772" y1="241.967" x2="320.726" y2="241.967"/>
						
							<line style="fill:none;stroke:#D1D7E0;stroke-width:1.0332;stroke-miterlimit:10;" x1="293.772" y1="247.1" x2="320.726" y2="247.1"/>
						
							<line style="fill:none;stroke:#D1D7E0;stroke-width:1.0332;stroke-miterlimit:10;" x1="293.772" y1="252.234" x2="320.726" y2="252.234"/>
						
							<line style="fill:none;stroke:#D1D7E0;stroke-width:1.0332;stroke-miterlimit:10;" x1="293.772" y1="257.367" x2="320.726" y2="257.367"/>
						
							<line style="fill:none;stroke:#D1D7E0;stroke-width:1.0332;stroke-miterlimit:10;" x1="293.772" y1="262.501" x2="320.726" y2="262.501"/>
						
							<line style="fill:none;stroke:#D1D7E0;stroke-width:1.0332;stroke-miterlimit:10;" x1="293.772" y1="267.635" x2="320.726" y2="267.635"/>
						
							<line style="fill:none;stroke:#D1D7E0;stroke-width:1.0332;stroke-miterlimit:10;" x1="293.772" y1="272.768" x2="310.933" y2="272.768"/>
					</g>
					<g>
						
							<line style="fill:none;stroke:#D1D7E0;stroke-width:1.0332;stroke-miterlimit:10;" x1="333.106" y1="337.289" x2="360.06" y2="337.289"/>
						
							<line style="fill:none;stroke:#D1D7E0;stroke-width:1.0332;stroke-miterlimit:10;" x1="333.106" y1="342.422" x2="360.06" y2="342.422"/>
						
							<line style="fill:none;stroke:#D1D7E0;stroke-width:1.0332;stroke-miterlimit:10;" x1="333.106" y1="347.556" x2="360.06" y2="347.556"/>
						
							<line style="fill:none;stroke:#D1D7E0;stroke-width:1.0332;stroke-miterlimit:10;" x1="333.106" y1="352.69" x2="360.06" y2="352.69"/>
						
							<line style="fill:none;stroke:#D1D7E0;stroke-width:1.0332;stroke-miterlimit:10;" x1="333.106" y1="357.823" x2="360.06" y2="357.823"/>
						
							<line style="fill:none;stroke:#D1D7E0;stroke-width:1.0332;stroke-miterlimit:10;" x1="333.106" y1="362.957" x2="360.06" y2="362.957"/>
						
							<line style="fill:none;stroke:#D1D7E0;stroke-width:1.0332;stroke-miterlimit:10;" x1="333.106" y1="368.09" x2="360.06" y2="368.09"/>
						
							<line style="fill:none;stroke:#D1D7E0;stroke-width:1.0332;stroke-miterlimit:10;" x1="333.106" y1="373.224" x2="350.267" y2="373.224"/>
					</g>
				</g>
				<g>
					
						<line style="fill:none;stroke:#D1D7E0;stroke-width:1.0332;stroke-miterlimit:10;" x1="138.363" y1="228.511" x2="138.363" y2="380.825"/>
					
						<line style="fill:none;stroke:#D1D7E0;stroke-width:1.0332;stroke-miterlimit:10;" x1="175.792" y1="228.511" x2="175.792" y2="380.825"/>
					
						<line style="fill:none;stroke:#D1D7E0;stroke-width:1.0332;stroke-miterlimit:10;" x1="213.22" y1="228.511" x2="213.22" y2="380.825"/>
					
						<line style="fill:none;stroke:#D1D7E0;stroke-width:1.0332;stroke-miterlimit:10;" x1="250.649" y1="228.511" x2="250.649" y2="380.825"/>
					
						<line style="fill:none;stroke:#D1D7E0;stroke-width:1.0332;stroke-miterlimit:10;" x1="288.077" y1="228.511" x2="288.077" y2="380.825"/>
					
						<line style="fill:none;stroke:#D1D7E0;stroke-width:1.0332;stroke-miterlimit:10;" x1="325.506" y1="228.511" x2="325.506" y2="380.825"/>
				</g>
			</g>
			<g>
				<g>
					<g>
						<path style="fill:#FF901B;" d="M273.094,251.769l-1.371-0.24c-0.16-0.597-0.398-1.171-0.707-1.707l0.799-1.139
							c0.294-0.419,0.244-0.988-0.118-1.349l-0.821-0.821c-0.367-0.355-0.936-0.396-1.349-0.096l-1.139,0.799
							c-0.536-0.309-1.11-0.547-1.707-0.707l-0.236-1.401c-0.086-0.497-0.513-0.864-1.017-0.873h-1.183
							c-0.513-0.001-0.952,0.368-1.039,0.873l-0.24,1.367c-0.597,0.16-1.171,0.398-1.707,0.707l-1.135-0.764
							c-0.419-0.294-0.988-0.244-1.349,0.118l-0.821,0.821c-0.362,0.361-0.412,0.931-0.118,1.349l0.799,1.139
							c-0.309,0.536-0.547,1.11-0.707,1.707l-1.366,0.24c-0.506,0.087-0.874,0.526-0.873,1.039v1.161
							c-0.001,0.513,0.368,0.952,0.873,1.039l1.366,0.24c0.16,0.597,0.398,1.171,0.707,1.707l-0.799,1.14
							c-0.294,0.419-0.244,0.988,0.118,1.349l0.821,0.821c0.361,0.362,0.931,0.412,1.349,0.118l1.14-0.799
							c0.536,0.309,1.11,0.547,1.707,0.707l0.24,1.367c0.087,0.505,0.526,0.874,1.039,0.873h1.179
							c0.513,0.001,0.952-0.368,1.039-0.873l0.24-1.367c0.597-0.16,1.171-0.398,1.707-0.707l1.113,0.781
							c0.419,0.294,0.988,0.244,1.349-0.118l0.821-0.821c0.362-0.361,0.412-0.931,0.118-1.349l-0.799-1.148
							c0.309-0.536,0.547-1.11,0.707-1.707l1.371-0.24c0.505-0.087,0.874-0.526,0.873-1.039v-1.161
							C273.966,252.293,273.598,251.856,273.094,251.769z M264.825,256.519c-1.731,0-3.135-1.404-3.135-3.135
							c0-1.731,1.404-3.135,3.135-3.135c1.731,0,3.135,1.403,3.135,3.135c0,0.006,0,0.011,0,0.017
							C267.95,255.126,266.549,256.519,264.825,256.519z"/>
						<path style="fill:#FF901B;" d="M284.152,247.898l-0.804-0.141c-0.094-0.35-0.233-0.687-0.415-1.001l0.469-0.668
							c0.172-0.245,0.143-0.579-0.069-0.791l-0.481-0.481c-0.215-0.208-0.549-0.232-0.791-0.056l-0.668,0.468
							c-0.314-0.181-0.651-0.321-1.001-0.415l-0.138-0.822c-0.05-0.292-0.301-0.507-0.597-0.512h-0.694
							c-0.301-0.001-0.558,0.216-0.609,0.512l-0.141,0.801c-0.35,0.094-0.687,0.233-1.001,0.415l-0.666-0.448
							c-0.246-0.172-0.579-0.143-0.791,0.069l-0.481,0.481c-0.212,0.212-0.241,0.546-0.069,0.791l0.468,0.668
							c-0.181,0.314-0.321,0.651-0.415,1.001l-0.801,0.141c-0.296,0.051-0.513,0.309-0.512,0.609v0.681
							c-0.001,0.301,0.216,0.558,0.512,0.609l0.801,0.141c0.094,0.35,0.233,0.687,0.415,1.001l-0.468,0.668
							c-0.172,0.245-0.143,0.579,0.069,0.791l0.481,0.481c0.212,0.212,0.546,0.241,0.791,0.069l0.668-0.469
							c0.314,0.181,0.651,0.321,1.001,0.415l0.141,0.801c0.051,0.296,0.309,0.513,0.609,0.512h0.691
							c0.301,0.001,0.558-0.216,0.609-0.512l0.141-0.801c0.35-0.094,0.687-0.233,1.001-0.415l0.653,0.458
							c0.246,0.172,0.579,0.143,0.791-0.069l0.481-0.481c0.212-0.212,0.241-0.546,0.069-0.791l-0.469-0.673
							c0.181-0.314,0.321-0.651,0.415-1.001l0.804-0.141c0.296-0.051,0.513-0.309,0.512-0.609v-0.681
							C284.664,248.205,284.448,247.949,284.152,247.898z M279.303,250.683c-1.015,0-1.838-0.823-1.838-1.838
							c0-1.015,0.823-1.838,1.838-1.838c1.015,0,1.838,0.823,1.838,1.838c0,0.003,0,0.007,0,0.01
							C281.136,249.867,280.315,250.683,279.303,250.683z"/>
						<path style="fill:#FF901B;" d="M279.955,263.589l-0.804-0.141c-0.094-0.35-0.233-0.687-0.415-1.001l0.469-0.668
							c0.172-0.246,0.143-0.579-0.069-0.791l-0.481-0.481c-0.215-0.208-0.549-0.232-0.791-0.056l-0.668,0.468
							c-0.314-0.181-0.651-0.321-1.001-0.415l-0.138-0.822c-0.05-0.292-0.301-0.507-0.596-0.512h-0.694
							c-0.301-0.001-0.558,0.216-0.609,0.512l-0.141,0.801c-0.35,0.094-0.687,0.233-1.001,0.415l-0.666-0.448
							c-0.245-0.172-0.579-0.143-0.791,0.069l-0.481,0.481c-0.212,0.212-0.242,0.546-0.069,0.791l0.469,0.668
							c-0.181,0.314-0.321,0.651-0.415,1.001l-0.801,0.141c-0.296,0.051-0.513,0.309-0.512,0.609v0.681
							c-0.001,0.301,0.216,0.558,0.512,0.609l0.801,0.141c0.094,0.35,0.233,0.687,0.415,1.001l-0.469,0.668
							c-0.172,0.245-0.143,0.579,0.069,0.791l0.481,0.481c0.212,0.212,0.546,0.241,0.791,0.069l0.668-0.469
							c0.314,0.181,0.651,0.321,1.001,0.415l0.141,0.801c0.051,0.296,0.308,0.513,0.609,0.512h0.691
							c0.301,0.001,0.558-0.216,0.609-0.512l0.141-0.801c0.35-0.094,0.687-0.233,1.001-0.415l0.653,0.458
							c0.245,0.172,0.579,0.143,0.791-0.069l0.481-0.481c0.212-0.212,0.241-0.546,0.069-0.791l-0.469-0.673
							c0.181-0.314,0.321-0.651,0.415-1.001l0.804-0.141c0.296-0.051,0.513-0.309,0.512-0.609v-0.681
							C280.466,263.896,280.25,263.64,279.955,263.589z M275.106,266.375c-1.015,0-1.838-0.823-1.838-1.838
							c0-1.015,0.823-1.838,1.838-1.838c1.015,0,1.838,0.823,1.838,1.838c0,0.003,0,0.007,0,0.01
							C276.939,265.558,276.117,266.375,275.106,266.375z"/>
					</g>
					<g>
						<g>
							<path style="fill:#BDB6BF;" d="M201.011,272.086c-0.014,0.52-0.449,0.955-0.983,0.955c-0.014,0-0.014,0-0.028,0h-0.126
								c-0.225,0.604-0.815,1.025-1.489,1.039c-0.098,1.109-1.039,1.952-2.177,1.924l-0.786-0.014
								c-1.138-0.028-2.05-0.927-2.093-2.036c-0.66-0.056-1.194-0.506-1.39-1.109h-0.183c-0.534-0.014-0.969-0.463-0.955-0.997
								c0.014-0.534,0.449-0.955,0.983-0.955c0.014,0,0.014,0,0.028,0h0.07l0.028-1.011h-0.084
								c-0.534-0.014-0.969-0.464-0.955-1.011c0.014-0.52,0.45-0.955,0.969-0.955c0.014,0,0.014,0,0.028,0h0.084l0.042-1.503
								l8.132,0.183l-0.042,1.517h0.028c0.548,0.014,0.969,0.464,0.955,0.997c0,0.534-0.435,0.955-0.969,0.955
								c-0.014,0-0.014,0-0.028,0h-0.028l-0.028,1.011h0.028C200.589,271.089,201.011,271.539,201.011,272.086z"/>
						</g>
						<g>
							<path style="fill:#EEC542;" d="M207.944,253.298c0.137-5.904-4.93-10.811-11.318-10.96
								c-6.388-0.148-11.678,4.518-11.816,10.422c-0.082,3.538,1.705,6.718,4.525,8.73l-0.001,0c0,0,1.326,0.77,1.429,2.776
								l-0.033,1.439c-0.016,0.675,0.564,1.236,1.294,1.253l8.07,0.188c0.73,0.017,1.335-0.517,1.351-1.192l0.034-1.451
								c0.2-1.992,1.531-2.688,1.531-2.688l-0.001,0C205.924,259.937,207.862,256.841,207.944,253.298z"/>
							<g>
								<path style="fill:none;stroke:#FFFFFF;stroke-width:1.4044;stroke-miterlimit:10;" d="M194.831,267.024l0.28-12.053
									c0.021-0.892-0.685-1.631-1.577-1.652l0,0c-0.892-0.021-1.631,0.685-1.652,1.577l-0.021,0.902
									c-0.021,0.892,0.685,1.631,1.577,1.652l2.787,0.072"/>
								<path style="fill:none;stroke:#FFFFFF;stroke-width:1.4044;stroke-miterlimit:10;" d="M197.205,267.079l0.28-12.053
									c0.021-0.892,0.76-1.598,1.652-1.577l0,0c0.892,0.021,1.598,0.76,1.577,1.652l-0.021,0.902
									c-0.021,0.892-0.76,1.598-1.652,1.577l-3.002-0.062"/>
							</g>
						</g>
					</g>
					<g>
						
							<ellipse transform="matrix(0.9379 -0.3469 0.3469 0.9379 -100.2233 128.0582)" style="fill:#F99595;" cx="307.628" cy="344.01" rx="12.235" ry="12.235"/>
						
							<ellipse transform="matrix(0.169 -0.9856 0.9856 0.169 -83.432 589.0607)" style="fill:#F7F7F7;" cx="307.628" cy="344.01" rx="9.012" ry="9.012"/>
						<circle style="fill:#F99595;" cx="307.628" cy="344.01" r="6.599"/>
						<path style="fill:#F7F7F7;" d="M311.942,344.01c0,2.382-1.931,4.314-4.314,4.314s-4.314-1.931-4.314-4.314
							c0-2.382,1.931-4.314,4.314-4.314S311.942,341.628,311.942,344.01z"/>
						<path style="fill:#F99595;" d="M310.004,344.01c0,1.313-1.064,2.377-2.376,2.377s-2.376-1.064-2.376-2.377
							c0-1.312,1.064-2.376,2.376-2.376S310.004,342.698,310.004,344.01z"/>
					</g>
				</g>
				<g>
					<g>
						<g>
							<rect x="104.77" y="230.909" style="fill:#DFE3E8;" width="28.412" height="31.684"/>
							<path style="fill:#F99595;" d="M104.77,230.909h28.24c0,0,0.845,27.438,3.099,29.905h-28.24
								C107.869,260.814,103.048,242.962,104.77,230.909z"/>
						</g>
						<g>
							<rect x="142.949" y="285.347" style="fill:#DFE3E8;" width="28.412" height="31.684"/>
							<path style="fill:#60A2F4;" d="M142.949,285.347h28.24c0,0,0.845,27.438,3.099,29.905h-28.24
								C146.049,315.252,141.227,297.401,142.949,285.347z"/>
						</g>
						<g>
							<rect x="216.451" y="238.57" style="fill:#DFE3E8;" width="28.412" height="31.684"/>
							<path style="fill:#F99595;" d="M216.451,238.57h28.24c0,0,0.845,27.438,3.1,29.905h-28.24
								C219.55,268.475,214.729,250.624,216.451,238.57z"/>
						</g>
						<g>
							<rect x="254.691" y="338.229" style="fill:#DFE3E8;" width="28.412" height="31.684"/>
							<path style="fill:#FF901B;" d="M254.691,338.229h28.24c0,0,0.846,27.438,3.1,29.905h-28.24
								C257.791,368.134,252.969,350.282,254.691,338.229z"/>
						</g>
						<g>
							<rect x="293.422" y="280.138" style="fill:#DFE3E8;" width="28.412" height="31.684"/>
							<path style="fill:#EEC542;" d="M293.422,280.138h28.24c0,0,0.845,27.438,3.099,29.905h-28.24
								C296.521,310.043,291.7,292.192,293.422,280.138z"/>
						</g>
						<g>
							<rect x="331.099" y="236.836" style="fill:#DFE3E8;" width="28.412" height="31.684"/>
							<path style="fill:#60A2F4;" d="M331.099,236.836h28.24c0,0,0.845,27.438,3.1,29.905h-28.24
								C334.199,266.741,329.377,248.89,331.099,236.836z"/>
						</g>
						<g>
							<rect x="334.418" y="299.41" style="fill:#DFE3E8;" width="28.412" height="31.684"/>
							<path style="fill:#F99595;" d="M334.418,299.41h28.24c0,0,0.845,27.438,3.099,29.905h-28.24
								C337.517,329.315,332.696,311.464,334.418,299.41z"/>
						</g>
						<g>
							<rect x="104.77" y="317.031" style="fill:#DFE3E8;" width="28.412" height="31.684"/>
							<path style="fill:#FF901B;" d="M104.77,317.031h28.24c0,0,0.845,27.438,3.099,29.905h-28.24
								C107.869,346.936,103.048,329.085,104.77,317.031z"/>
						</g>
					</g>
					<g>
						<rect x="179.556" y="337.339" style="fill:#DFE3E8;" width="28.412" height="31.684"/>
						<path style="fill:#EEC542;" d="M179.556,337.339h28.24c0,0,0.846,27.438,3.1,29.905h-28.24
							C182.656,367.245,177.834,349.393,179.556,337.339z"/>
					</g>
					<g>
						<g>
							<path style="opacity:0.2;fill:#352A2A;" d="M230.703,242.301c0.28,1.962-0.185,3.652-1.039,3.774
								c-0.854,0.122-1.774-1.37-2.054-3.332c-0.28-1.962,0.185-3.652,1.04-3.774C229.504,238.846,230.423,240.338,230.703,242.301z
								"/>
							<polygon style="fill:#514646;" points="228.746,242.521 235.64,239.4 236.549,242.213 							"/>
							<path style="fill:#60A2F4;" d="M237.452,240.178c0.622,2.053,0.268,3.887-0.791,4.096c-1.059,0.209-2.421-1.285-3.043-3.338
								c-0.622-2.053-0.268-3.887,0.791-4.096C235.468,236.631,236.83,238.126,237.452,240.178z"/>
							<polygon style="fill:#60A2F4;" points="234.409,236.84 236.683,237.376 240.527,236.921 243.279,242.381 237.943,243.089 
								236.661,244.274 							"/>
							<path style="fill:#2B629E;" d="M243.28,242.393l-5.339,0.702c-2.526-2.533-1.424-5.622-1.397-5.696l3.984-0.416
								L243.28,242.393z"/>
							<path style="fill:#60A2F4;" d="M244.558,239.063c0.622,2.053,0.268,3.887-0.791,4.096c-1.059,0.209-2.421-1.285-3.043-3.338
								c-0.622-2.053-0.268-3.887,0.791-4.096C242.573,235.516,243.936,237.01,244.558,239.063z"/>
						</g>
						<g>
							<path style="opacity:0.2;fill:#352A2A;" d="M349.62,241.517c0.262,1.962-0.174,3.652-0.974,3.774
								c-0.8,0.122-1.661-1.37-1.924-3.333c-0.262-1.962,0.174-3.652,0.974-3.774C348.497,238.062,349.358,239.554,349.62,241.517z"
								/>
							<polygon style="fill:#514646;" points="347.787,241.737 354.244,238.616 355.096,241.429 							"/>
							<path style="fill:#60A2F4;" d="M355.942,239.394c0.583,2.053,0.251,3.887-0.741,4.096c-0.992,0.209-2.268-1.285-2.851-3.338
								c-0.582-2.053-0.251-3.887,0.741-4.096C354.083,235.847,355.359,237.341,355.942,239.394z"/>
							<polygon style="fill:#60A2F4;" points="353.092,236.056 355.221,236.592 358.822,236.137 361.4,241.596 356.402,242.305 
								355.201,243.49 							"/>
							<path style="fill:#2B629E;" d="M361.401,241.609l-5.001,0.702c-2.366-2.533-1.334-5.622-1.309-5.696l3.732-0.416
								L361.401,241.609z"/>
							<path style="fill:#60A2F4;" d="M362.598,238.279c0.583,2.053,0.251,3.887-0.741,4.096s-2.268-1.285-2.85-3.338
								c-0.582-2.053-0.251-3.887,0.741-4.096C360.739,234.732,362.015,236.226,362.598,238.279z"/>
						</g>
						<g>
							<path style="opacity:0.2;fill:#352A2A;" d="M309.082,284.768c0.262,1.962-0.174,3.652-0.974,3.774
								c-0.8,0.122-1.661-1.37-1.924-3.332c-0.262-1.962,0.174-3.652,0.974-3.774C307.958,281.313,308.819,282.805,309.082,284.768z
								"/>
							<polygon style="fill:#514646;" points="307.249,284.988 313.706,281.867 314.557,284.68 							"/>
							<path style="fill:#60A2F4;" d="M315.404,282.645c0.582,2.053,0.251,3.887-0.741,4.096c-0.992,0.209-2.268-1.285-2.85-3.338
								c-0.582-2.053-0.251-3.887,0.741-4.096C313.545,279.098,314.821,280.592,315.404,282.645z"/>
							<polygon style="fill:#60A2F4;" points="312.553,279.307 314.683,279.843 318.284,279.388 320.862,284.847 315.863,285.555 
								314.663,286.741 							"/>
							<path style="fill:#2B629E;" d="M320.862,284.86l-5.001,0.702c-2.366-2.533-1.334-5.622-1.309-5.696l3.732-0.416
								L320.862,284.86z"/>
							<path style="fill:#60A2F4;" d="M322.059,281.53c0.583,2.053,0.251,3.887-0.741,4.096s-2.268-1.285-2.85-3.338
								c-0.583-2.053-0.251-3.887,0.741-4.096C320.2,277.983,321.477,279.477,322.059,281.53z"/>
						</g>
						<g>
							<path style="opacity:0.2;fill:#352A2A;" d="M120.239,237.606c0.262,1.962-0.174,3.652-0.974,3.774
								c-0.8,0.122-1.661-1.37-1.924-3.333c-0.262-1.962,0.174-3.652,0.974-3.774C119.115,234.151,119.976,235.643,120.239,237.606z
								"/>
							<polygon style="fill:#514646;" points="118.406,237.826 124.863,234.705 125.714,237.518 							"/>
							<path style="fill:#60A2F4;" d="M126.561,235.483c0.583,2.053,0.251,3.887-0.741,4.096c-0.992,0.209-2.268-1.285-2.85-3.338
								c-0.583-2.053-0.251-3.887,0.741-4.096C124.702,231.936,125.978,233.43,126.561,235.483z"/>
							<polygon style="fill:#60A2F4;" points="123.71,232.145 125.84,232.681 129.441,232.226 132.019,237.686 127.021,238.393 
								125.82,239.579 							"/>
							<path style="fill:#2B629E;" d="M132.02,237.698l-5.001,0.702c-2.366-2.533-1.334-5.622-1.309-5.696l3.732-0.416
								L132.02,237.698z"/>
							<path style="fill:#60A2F4;" d="M133.216,234.368c0.582,2.053,0.251,3.887-0.741,4.096c-0.992,0.209-2.268-1.285-2.851-3.338
								c-0.583-2.053-0.251-3.887,0.741-4.096S132.634,232.315,133.216,234.368z"/>
						</g>
						<g>
							<path style="opacity:0.2;fill:#352A2A;" d="M196.89,341.103c0.262,1.962-0.174,3.652-0.974,3.774
								c-0.8,0.122-1.661-1.37-1.924-3.332c-0.262-1.962,0.174-3.652,0.974-3.774C195.766,337.649,196.627,339.141,196.89,341.103z"
								/>
							<polygon style="fill:#514646;" points="195.057,341.324 201.514,338.202 202.366,341.016 							"/>
							<path style="fill:#60A2F4;" d="M203.212,338.981c0.583,2.053,0.251,3.887-0.741,4.096c-0.992,0.209-2.268-1.285-2.85-3.338
								c-0.583-2.053-0.251-3.887,0.741-4.096C201.353,335.434,202.629,336.928,203.212,338.981z"/>
							<polygon style="fill:#60A2F4;" points="200.361,335.643 202.491,336.178 206.092,335.724 208.67,341.183 203.672,341.891 
								202.471,343.077 							"/>
							<path style="fill:#2B629E;" d="M208.671,341.196l-5.001,0.702c-2.366-2.533-1.334-5.622-1.309-5.696l3.732-0.416
								L208.671,341.196z"/>
							<path style="fill:#60A2F4;" d="M209.867,337.866c0.583,2.053,0.251,3.887-0.741,4.096c-0.992,0.209-2.268-1.285-2.85-3.338
								c-0.583-2.053-0.251-3.887,0.741-4.096C208.009,334.319,209.285,335.813,209.867,337.866z"/>
						</g>
						<g>
							<path style="opacity:0.2;fill:#352A2A;" d="M156.639,289.956c0.262,1.962-0.174,3.652-0.974,3.774
								c-0.8,0.122-1.661-1.37-1.924-3.332c-0.262-1.962,0.174-3.652,0.974-3.774C155.515,286.501,156.377,287.993,156.639,289.956z
								"/>
							<polygon style="fill:#514646;" points="154.806,290.176 161.263,287.055 162.115,289.868 							"/>
							<path style="fill:#60A2F4;" d="M162.961,287.833c0.583,2.053,0.251,3.887-0.741,4.096c-0.992,0.209-2.268-1.285-2.85-3.338
								c-0.583-2.053-0.251-3.887,0.741-4.096C161.102,284.286,162.378,285.78,162.961,287.833z"/>
							<polygon style="fill:#60A2F4;" points="160.11,284.495 162.24,285.03 165.841,284.576 168.419,290.035 163.421,290.743 
								162.22,291.929 							"/>
							<path style="fill:#2B629E;" d="M168.42,290.048l-5.001,0.702c-2.366-2.533-1.334-5.622-1.309-5.696l3.732-0.416
								L168.42,290.048z"/>
							<path style="fill:#60A2F4;" d="M169.617,286.718c0.583,2.053,0.251,3.887-0.741,4.096c-0.992,0.209-2.268-1.285-2.85-3.338
								c-0.583-2.053-0.251-3.887,0.741-4.096S169.034,284.665,169.617,286.718z"/>
						</g>
						<g>
							<path style="opacity:0.2;fill:#352A2A;" d="M273.149,342.731c0.262,1.962-0.174,3.652-0.974,3.774
								c-0.8,0.122-1.661-1.37-1.923-3.333c-0.262-1.962,0.174-3.652,0.974-3.774C272.025,339.277,272.887,340.769,273.149,342.731z
								"/>
							<polygon style="fill:#514646;" points="271.316,342.952 277.773,339.83 278.625,342.643 							"/>
							<path style="fill:#60A2F4;" d="M279.471,340.608c0.583,2.053,0.251,3.887-0.741,4.096c-0.992,0.209-2.268-1.285-2.85-3.338
								c-0.583-2.053-0.251-3.887,0.741-4.096C277.612,337.061,278.888,338.556,279.471,340.608z"/>
							<polygon style="fill:#60A2F4;" points="276.62,337.271 278.75,337.806 282.351,337.351 284.929,342.811 279.931,343.519 
								278.73,344.705 							"/>
							<path style="fill:#2B629E;" d="M284.93,342.824l-5.001,0.702c-2.366-2.533-1.334-5.622-1.309-5.696l3.732-0.416
								L284.93,342.824z"/>
							<path style="fill:#60A2F4;" d="M286.127,339.493c0.583,2.053,0.251,3.887-0.741,4.096c-0.992,0.209-2.268-1.285-2.85-3.338
								c-0.583-2.053-0.251-3.887,0.741-4.096S285.544,337.441,286.127,339.493z"/>
						</g>
						<g>
							<path style="opacity:0.2;fill:#352A2A;" d="M353.573,303.788c0.262,1.962-0.174,3.652-0.974,3.774
								c-0.8,0.122-1.661-1.37-1.923-3.332c-0.262-1.962,0.174-3.652,0.974-3.774C352.45,300.333,353.311,301.825,353.573,303.788z"
								/>
							<polygon style="fill:#514646;" points="351.741,304.009 358.198,300.887 359.049,303.7 							"/>
							<path style="fill:#60A2F4;" d="M359.895,301.665c0.583,2.053,0.251,3.887-0.741,4.096c-0.992,0.209-2.268-1.285-2.851-3.338
								c-0.582-2.053-0.251-3.887,0.741-4.096C358.037,298.118,359.313,299.612,359.895,301.665z"/>
							<polygon style="fill:#60A2F4;" points="357.045,298.328 359.175,298.863 362.776,298.408 365.353,303.868 360.355,304.576 
								359.155,305.761 							"/>
							<path style="fill:#2B629E;" d="M365.354,303.88l-5.001,0.702c-2.366-2.533-1.334-5.622-1.309-5.696l3.732-0.416
								L365.354,303.88z"/>
							<path style="fill:#60A2F4;" d="M366.551,300.55c0.583,2.053,0.251,3.887-0.741,4.096s-2.268-1.285-2.85-3.338
								c-0.583-2.053-0.251-3.887,0.741-4.096S365.968,298.497,366.551,300.55z"/>
						</g>
					</g>
				</g>
			</g>
		</g>
	</g>
	<g>
		<g>
			<g>
				<path style="fill:#60A2F4;" d="M76.331,340.106c0,0-4.533-5.376-14.5-12.228v-3.139l-2.202,1.534
					c-8.187-6.489-7.8-12.977,0.199-13.891c2.284-0.258,4.486,0.07,6.489,1.101l-0.187,3.057l3.268-0.75
					C73.297,319.808,75.991,327.527,76.331,340.106z"/>
				<path style="fill:#60A2F4;" d="M107.263,306.726c-0.925,1.312-2.354,2.788-4.076,4.357l-4.767-1.429l0.75,4.79
					c-8.609,6.77-20.075,13.68-20.075,13.68c-0.515-11.666,1.792-25.615,11.829-31.729l3.514,1.687l-1.089-2.952
					c0.726-0.316,1.499-0.597,2.296-0.843C109.699,290.036,112.779,298.972,107.263,306.726z"/>
				<path style="fill:#60A2F4;" d="M76.085,301.642c0,0-7.847-3.9-14.254-9.112v-3.818l-2.682,1.476
					c-4.076-3.9-6.758-8.257-4.79-12.157c2.225-4.404,7.226-4.743,11.923-1.933l0.199,3.689l2.764-1.441
					C74.14,282.914,77.83,291.101,76.085,301.642z"/>
				<path style="fill:#60A2F4;" d="M105.377,285.315l-4.755-1.429v3.256c-7.648,2.753-17.041,5.446-17.041,5.446
					c1.698-8.89,5.821-16.866,14.277-19.431l1.886,1.804l1.277-2.483c0.586-0.082,1.183-0.129,1.804-0.164
					C114.642,271.729,113.072,282.06,105.377,285.315z"/>
				<path style="fill:#60A2F4;" d="M80.043,282.446c0,0-8.058-8.96-17.545-18.412l1.324-4.837l-5.072,1.16
					c-0.094-0.094-0.199-0.187-0.293-0.281c-11.127-10.74-5.645-25.381,10.939-18.939c1.569,0.609,2.963,1.359,4.205,2.249
					l-0.597,4.099l4.099-0.878C85.01,256.082,82.925,272.678,80.043,282.446z"/>
				<path style="fill:#60A2F4;" d="M111.421,256.503c-0.832,1.792-2.261,3.525-4.041,5.142l-4.415,0.48l0.457,2.635
					c-7.332,5.071-16.596,8.503-16.596,8.503s0.187-13.528,9.253-22.171c0.129-0.129,0.258-0.246,0.386-0.351l3.666,1.23
					l-0.316-3.678C107.755,243.842,115.122,248.539,111.421,256.503z"/>
			</g>
			<g>
				<path style="fill:#070707;" d="M99.744,342.009H54.358l7.32,46.666v17.312c0,0.061,0.013,1.502,1.125,2.535
					c0.714,0.663,1.694,0.999,2.918,0.999c0.174,0,0.355-0.007,0.539-0.021c3.723-0.277,3.593-7.591,3.488-13.469
					c-0.011-0.607-0.021-1.194-0.026-1.756h17.201c-0.006,0.561-0.016,1.149-0.026,1.756c-0.105,5.878-0.235,13.192,3.488,13.469
					c0.185,0.014,0.365,0.021,0.539,0.021c1.224,0,2.203-0.335,2.918-0.999c1.112-1.033,1.125-2.474,1.125-2.535v-16.612
					L99.744,342.009z M68.577,396.052c0.086,4.813,0.216,12.086-2.404,12.28c-1.127,0.085-1.995-0.137-2.563-0.659
					c-0.739-0.678-0.761-1.678-0.761-1.685v-11.712h5.701C68.556,394.844,68.566,395.438,68.577,396.052z M93.045,407.664
					c-0.567,0.527-1.435,0.748-2.573,0.667c-2.619-0.193-2.49-7.467-2.404-12.28c0.011-0.613,0.021-1.208,0.027-1.776h5.701v11.712
					C93.796,405.998,93.775,406.986,93.045,407.664z"/>
				<rect x="51.723" y="338.349" style="fill:#252728;" width="50.363" height="7.32"/>
			</g>
		</g>
		<g>
			<path style="fill:none;stroke:#252728;stroke-width:1.1712;stroke-miterlimit:10;" d="M109.992,251.092
				c0,0-31.33,12.884-32.941,58.562c-1.61,45.678,0,52.706,0,52.706"/>
			<path style="fill:none;stroke:#252728;stroke-width:1.1712;stroke-miterlimit:10;" d="M55.92,315.315
				c0,0,17.992,4.49,20.415,24.791"/>
			<path style="fill:none;stroke:#252728;stroke-width:1.1712;stroke-miterlimit:10;" d="M107.259,295.989
				c0,0-30.615,15.616-30.924,48.02"/>
			<path style="fill:none;stroke:#252728;stroke-width:1.1712;stroke-miterlimit:10;" d="M55.92,278.909
				c0,0,20.71,6.544,21.131,30.745"/>
			<path style="fill:none;stroke:#252728;stroke-width:1.1712;stroke-miterlimit:10;" d="M58.458,243.479
				c0,0,24.856,17.257,21.585,46.013"/>
			<path style="fill:none;stroke:#252728;stroke-width:1.1712;stroke-miterlimit:10;" d="M109.992,276.859
				c0,0-31.33,3.123-32.941,36.699"/>
		</g>
	</g>
	<g>
		<path style="opacity:0.2;fill:#352A2A;" d="M121.702,321.407c0.262,1.962-0.174,3.652-0.974,3.774
			c-0.8,0.122-1.661-1.37-1.923-3.332c-0.262-1.962,0.174-3.652,0.974-3.774C120.579,317.952,121.44,319.444,121.702,321.407z"/>
		<polygon style="fill:#514646;" points="119.869,321.627 126.326,318.506 127.178,321.319 		"/>
		<path style="fill:#60A2F4;" d="M128.024,319.284c0.583,2.053,0.251,3.887-0.741,4.096c-0.992,0.209-2.268-1.285-2.851-3.338
			c-0.582-2.053-0.251-3.887,0.741-4.096C126.165,315.737,127.442,317.231,128.024,319.284z"/>
		<polygon style="fill:#60A2F4;" points="125.174,315.946 127.303,316.482 130.904,316.027 133.482,321.487 128.484,322.195 
			127.283,323.38 		"/>
		<path style="fill:#2B629E;" d="M133.483,321.499l-5.001,0.702c-2.366-2.533-1.334-5.622-1.309-5.696l3.732-0.416L133.483,321.499z
			"/>
		<path style="fill:#60A2F4;" d="M134.68,318.169c0.583,2.053,0.251,3.887-0.741,4.096s-2.268-1.285-2.85-3.338
			c-0.583-2.053-0.251-3.887,0.741-4.096C132.821,314.622,134.097,316.116,134.68,318.169z"/>
	</g>
	<g>
		<g>
			<g>
				
					<rect x="95.994" y="379.398" transform="matrix(-1 -1.224647e-16 1.224647e-16 -1 274.4867 793.1079)" style="fill:#FFFFFF;" width="82.498" height="34.312"/>
				<polygon style="fill:#E9EDF4;" points="141.504,413.71 120.961,380.215 95.994,380.215 95.994,413.71 				"/>
			</g>
		</g>
		<g>
			<g>
				<g>
					<g>
						<path style="fill:#1F2326;" d="M137.014,319.825c-0.876-6.911-0.884-13.932-0.024-20.846c0.337-2.713,0.804-5.506,0.09-8.145
							c-1.06-3.917-4.828-6.869-8.873-7.201c-4.044-0.331-8.132,1.845-10.331,5.256c-2.605,4.041-2.575,9.182-2.372,13.986
							c0.204,4.804,0.433,9.892-1.874,14.112c2.465,3.621,6.437,6.591,10.783,7.145C128.76,324.685,133.72,322.712,137.014,319.825z
							"/>
						<path style="fill:#4498E2;" d="M140.395,317.446c1.349,2.681,1.658,6.109,2.616,9.088
							c3.842,11.949,9.562,23.295,16.908,33.473c-2.222,2.128-5.988,1.763-8.523,0.02c-2.535-1.743-4.129-4.518-5.639-7.199
							c-3.908-6.938-8.209-13.779-11.771-20.898c-1.129-2.256-1.376-4.419-2.095-6.789c-0.779-2.566-2.817-5.396-2.817-8.149
							c0.026-4.426,4.166-4.697,7.444-3.292C138.419,314.515,139.592,315.848,140.395,317.446z"/>
						<path style="fill:#2D7FC9;" d="M143.407,334.577c0.17-6.739-4.222-12.709-5.615-19.305c0.481,7.88,0.527,15.786,0.137,23.671
							c-0.119,2.407,1.292,5.26,3.428,2.742C142.83,339.948,143.351,336.765,143.407,334.577z"/>
						<path style="fill:#C47A7A;" d="M143.4,361.649c0,0,16.525,1.962,16.527,1.962c4.077,0.484,15.916,4.783,9.832,10.03
							c-1.19,1.027-2.671,1.647-4.142,2.202c-3.262,1.232-6.613,2.225-10.019,2.974c-3.607,0.794-5.761,0.193-9.323-0.243
							c-6.444-0.788-12.888-1.576-19.332-2.364l-13.408-14.562H143.4z"/>
						<path style="display:none;fill:#A74040;" d="M169.454,366.379c0.555,0.558,0.983,1.205,1.229,1.958
							c-1.255-1.823-3.835-0.874-5.344,0.024c-2.008,1.195-3.942,2.713-5.547,4.41c-1.618,1.71-2.019,4.468-4.383,5.007
							c-5.548,1.265-14.201,3.167-18.871-0.588c-2.348-1.889-4.332-4.442-5.426-7.258c-0.281-0.722-1.913-8.135-0.46-8.181
							c6.087-0.192,12.077-1.24,18.081-0.336c4.03,0.607,8.123,0.734,12.129,1.512C163.449,363.429,167.354,364.266,169.454,366.379
							z"/>
						<path style="fill:#C47A7A;" d="M121.136,366.633c-0.711,0.386-1.49,0.914-1.567,1.72c-0.059,0.611,0.336,1.195,0.847,1.535
							c0.511,0.34,1.126,0.482,1.726,0.612c4.016,0.867,9.512,3.871,13.399,1.389c2.511-1.603,4.001-7.487,4.105-10.225
							c-0.011,0.301-8.306,1.237-8.969,1.387C127.352,363.802,124.13,365.006,121.136,366.633z"/>
						<path style="fill:#F99595;" d="M143.167,377.277c-0.876,1.776-2.829,3.512-4.995,4.568c-5.196,2.533-11.49,1.879-16.978,0.846
							c-3.793-0.714-7.309-2.299-8.747-6.007c-1.081-2.787-2.09-9.082,1.486-10.677c3.478-1.551,11.555,2.8,15.225,3.063
							c6.431,0.462,8.617,2.119,10.184,2.505C143.637,372.632,144.296,374.988,143.167,377.277z"/>
						<path style="fill:#FFFFFF;" d="M109.526,356.771c-0.164,2.867-0.248,5.737-0.232,8.609c0.024,4.334,3.641,5.122,7.168,3.078
							c3.653-2.117,7.468-4.188,11.747-4.598c6.164-0.589,6.569-2.108,6.519-8.782c-0.049-6.525,2.896-12.448,4.682-18.583
							c0.835-2.867,1.79-6.321,1.59-9.334c-0.217-3.276-2.131-6.737-3.358-9.808c-2.573-6.437-11.506-6.1-17.137-5.331
							c-3.157,0.431-6.693,0.622-8.663,3.26c-2.673,3.578-2.976,8.654-1.995,12.856c1.233,5.284,3.51,10.593,2.551,15.934
							c-0.622,3.464-2.391,6.02-2.663,9.57C109.656,354.684,109.586,355.727,109.526,356.771z"/>
						<path style="fill:#F0F3F7;" d="M108.756,366.016c-0.136,2.141,1.263,4.605,2.468,6.074c4.365-1.867,7.984-5.021,12.675-6.269
							c5.462-1.454,11.204-1.454,16.79-2.025c3.863-0.414-0.153-6.821-1.056-8.597c-1.567-3.08-2.781-7.484-2.479-10.945
							c-5.629,3.106-13.425,6.124-16.902,11.673c-1.254,2.001-2.64,4.787-4.82,5.956c-1.963,1.052-4.501,0.153-6,2.198
							C109.005,364.662,108.8,365.322,108.756,366.016z"/>
						<path style="fill:#4498E2;" d="M127.986,312.947c0.08,0.515,4.447,1.724,4.924,3.22c0.477,1.496,3.707,11.298,3.707,11.298
							l-1.777,20.195l2.78,17.225l6.877-1.85l-4.624-20.362l1.627-16.844l-4.981-12.128c0,0-2.795-1.968-7.444-2.084
							C124.425,311.501,127.986,312.947,127.986,312.947z"/>
						<path style="fill:#60A2F4;" d="M121.867,311.031c0,0,6.11,11.112,5.875,18.114c-0.333,9.895,1.942,20.807-0.979,30.699
							c-1.124,3.806-3.919,6.345-6.815,8.858c-1.29,1.119-3.434,2.478-4.203,4.043c-0.887,1.804,0.127,3.803-1.568,5.559
							c-1.132,1.172-2.774,1.742-4.398,1.881c-1.623,0.139-3.252-0.111-4.862-0.361c2.556,0.396,2.971-17.467,3.174-19.262
							c1.014-8.956,2.069-17.946,3.319-26.838c0.259-1.843,0.3-20.001,1.367-20.284L121.867,311.031z"/>
						<path style="fill:#5397E0;" d="M113.632,323.826c1.426,5.829,2.869,11.679,4.994,17.3c1.078,2.851,2.325,5.644,3.832,8.296
							c1.15,2.025,1.843,4.309,2.966,6.229c0.059,0.101,2.662-6.577,2.783-7.526c0.444-3.5-1.104-4.573-3.227-7.253
							C120.737,335.516,116.936,329.808,113.632,323.826z"/>
						<path style="fill:#5397E0;" d="M126.761,359.841c0.044,0.145-2.45,4.149-2.641,4.465c-1.207,1.984-2.695,3.796-4.411,5.361
							c-0.186,0.17-4.983-8.086-5.351-8.867c-1.619-3.435-2.706-6.991-3.661-10.655c-1.153-4.425-0.349-8.46,0.232-12.935
							C110.93,337.209,126.516,359.49,126.761,359.841z"/>
						<path style="fill:#60A2F4;" d="M114.492,313.455c4.192,1,2.151,8.365,2.368,11.411c0.225,3.156,0.487,6.49,1.697,9.445
							c1.804,4.408,4.397,8.483,7.353,12.203c4.597,5.785,10.108,10.769,15.59,15.723c-1.026-0.927-6.109,0.884-7.554,0.794
							c-3.046-0.189-6.175-1.934-8.716-3.502c-7.782-4.804-13.341-12.527-16.185-21.153c-1.425-4.322-2.187-8.863-2.286-13.412
							c-0.084-3.834,0.227-7.454,3.273-10.152c1.191-1.055,2.835-1.712,4.39-1.373C114.445,313.444,114.468,313.45,114.492,313.455z
							"/>
						<path style="fill:#F0BF9C;" d="M120.882,312.438c0.687,1.861,2.276,2.745,3.75,3.014c0.931,0.176,4.032,0.348,4.537-0.72
							c0.349-0.728-0.135-1.68-0.522-2.435c-0.352-0.688-0.616-1.403-0.807-2.135c-0.602-2.283-0.457-4.683,0.194-6.888
							c-0.008-0.008-0.008-0.008-0.001-0.009c0.094-0.342,0.204-0.659,0.321-0.985c0.007-0.001,0.006-0.01,0.006-0.01l-0.346-0.195
							c-0.116-0.05-0.23-0.082-0.351-0.114c-0.776-0.211-1.565-0.026-2.366-0.091c-1.421-0.105-2.892-0.536-4.326-0.89
							c-0.263-0.07-0.519-0.132-0.774-0.193C122.06,301.211,120.314,310.904,120.882,312.438z"/>
						<path style="fill:#CA876F;" d="M120.132,300.976c1.598,5.649,6.182,9.102,7.798,10.177c-0.468-2.406,0.074-4.85,1.258-7.036
							c-0.009-0.009-0.009-0.009,0-0.009c0.266-0.744,0.505-0.937,0.57-0.974c0.009,0,0.009-0.009,0.009-0.009l-0.432-0.239
							c-0.147-0.064-0.294-0.11-0.45-0.156c-1.001-0.303-2.076-0.202-3.132-0.358C123.88,302.106,121.988,301.499,120.132,300.976z"
							/>
						<path style="fill:#DB8686;" d="M142.02,371.484c-1.967,0.988-10.351,4.314-10.316,7.021c0.016,1.222,1.07,2.233,2.235,2.602
							c1.165,0.37,2.422,0.239,3.637,0.105c3.673-0.405,7.347-0.81,11-1.369c5.399-0.826,10.747-1.986,16.003-3.473
							c3.421-0.968,16.079-7.866,8.139-12.026c-0.872-0.457-1.885-0.549-2.869-0.596c-6.27-0.296-11.475,1.517-17.337,3.423
							C148.914,368.341,145.403,369.785,142.02,371.484z"/>
						<g>
							<path style="fill:#F0BF9C;" d="M132.956,292.385c-3.515,2.925-7.85,4.845-12.372,5.516v2.16c0,3.898,3.16,7.059,7.059,7.059
								h0c3.898,0,7.059-3.16,7.059-7.059v-4.581c0-0.789-0.135-1.546-0.374-2.254C133.911,292.888,133.454,292.602,132.956,292.385
								z"/>
							<g>
								<g>
									<path style="fill:#1F2326;" d="M128.021,296.128c-0.825,0-1.556,0.395-2.02,1.004h4.041
										C129.577,296.523,128.846,296.128,128.021,296.128z"/>
								</g>
								<circle style="fill:#422C4F;" cx="128.021" cy="298.701" r="0.567"/>
							</g>
							<g>
								<g>
									<path style="fill:#1F2326;" d="M133.271,296.128c0.584,0,1.102,0.395,1.43,1.004h-2.861
										C132.169,296.523,132.687,296.128,133.271,296.128z"/>
								</g>
								<path style="fill:#422C4F;" d="M132.87,298.701c0,0.313,0.18,0.567,0.401,0.567c0.221,0,0.401-0.254,0.401-0.567
									c0-0.313-0.18-0.567-0.401-0.567C133.05,298.135,132.87,298.388,132.87,298.701z"/>
							</g>
							<path style="fill:#EBA588;" d="M132.1,300.911c-0.632-0.084-1.274-0.092-1.909-0.025c0.176,0.309,0.572,0.563,0.928,0.575
								C131.475,301.473,131.903,301.207,132.1,300.911z"/>
							<path style="fill:#FFFFFF;" d="M132.25,302.48c-1.58,0.257-3.189,0.333-4.787,0.228c0.074,0.718,0.639,1.416,1.276,1.757
								c0.637,0.341,1.442,0.345,2.082,0.009C131.555,304.088,131.901,303.232,132.25,302.48z"/>
							<path style="fill:#1F2326;" d="M120.584,297.901v3.277l0.748-0.749c0.58-0.58,0.905-1.366,0.905-2.186v-1.281
								L120.584,297.901z"/>
							<g>
								<path style="fill:#F0BF9C;" d="M121.237,299.752c0,1.255-1.018,2.273-2.273,2.273c-1.255,0-2.273-1.018-2.273-2.273
									c0-1.255,1.018-2.273,2.273-2.273C120.22,297.479,121.237,298.497,121.237,299.752z"/>
								<path style="fill:#EBA588;" d="M120.307,299.752c0,0.742-0.601,1.343-1.343,1.343c-0.741,0-1.343-0.601-1.343-1.343
									c0-0.742,0.601-1.343,1.343-1.343C119.706,298.41,120.307,299.011,120.307,299.752z"/>
							</g>
						</g>
					</g>
					<g>
						
							<rect x="122.05" y="362.438" transform="matrix(-1 -1.224647e-16 1.224647e-16 -1 273.2348 727.1024)" style="fill:#304573;" width="29.136" height="2.227"/>
						<path style="fill:#304573;" d="M177.721,364.528l9.257-20.936c0.358-0.81-0.235-1.722-1.122-1.722h-39.844
							c-0.494,0-0.939,0.296-1.13,0.752l-9.339,22.263L177.721,364.528z"/>
						<path style="fill:#344B7E;" d="M179.798,364.528l9.257-20.936c0.358-0.81-0.235-1.722-1.121-1.722h-39.844
							c-0.494,0-0.939,0.296-1.131,0.752l-9.339,22.263L179.798,364.528z"/>
						<path style="fill:#FFFFFF;" d="M160.775,351.537c-0.676,2.04,0.184,4.161,1.92,4.736c1.736,0.575,3.692-0.613,4.368-2.654
							c0.676-2.04-0.184-4.161-1.921-4.736C163.406,348.308,161.451,349.496,160.775,351.537z"/>
					</g>
				</g>
				<path style="fill:#78B860;" d="M117.634,361.633"/>
			</g>
			<path style="fill:#F99595;" d="M150.842,417.304c-1.125,0.542-2.639,0.179-3.621-0.67c-3.025-2.614-5.059-7.569-7.067-11.031
				c-3.399-5.861-17.459-28.752-6.34-34.108c1.686-0.812,3.784-0.264,5.241,0.91c1.457,1.174,2.388,2.869,3.181,4.564
				c3.608,7.714,4.623,16.079,7.031,24.157C149.977,403.51,154.215,415.679,150.842,417.304z"/>
			<path style="fill:#E9B98A;" d="M152.097,414.708l10.069,8.54c0,0-5.247,6.323-8.553,4.348
				c-3.307-1.975-6.391-10.962-6.391-10.962L152.097,414.708z"/>
			<path d="M159.362,423.081c-0.025,0.098-0.058,0.194-0.099,0.287c-0.988,2.224-4.75,1.241-6.323,0.275
				c-1.854-1.138-3.232-2.888-4.783-4.413c1.682,4.025,3.107,9.831,7.949,11.174c2.902,0.805,6.979-0.924,7.412-4.18
				c0.536-4.027-4.257-6.095-6.92-8.046C157.78,419.045,159.799,421.367,159.362,423.081z"/>
		</g>
	</g>
	<g>
		<path style="fill:#B1DCFB;" d="M51.625,274.084l-30.41,0.065c-2.022,0.003-3.663-1.634-3.665-3.655l0,0
			c-0.003-2.022,1.634-3.663,3.655-3.665l30.41-0.066c2.022-0.003,3.663,1.634,3.665,3.655l0,0
			C55.284,272.44,53.647,274.081,51.625,274.084z"/>
		<path style="fill:#B1DCFB;" d="M155.387,73.505l-62.19,0.066c-2.022,0.003-3.663-1.634-3.665-3.656l0,0
			c-0.003-2.022,1.634-3.663,3.655-3.666l62.19-0.065c2.022-0.003,3.663,1.634,3.666,3.655l0,0
			C159.045,71.861,157.408,73.502,155.387,73.505z"/>
		<path style="fill:#B1DCFB;" d="M432.732,93.101l-5.804,0.008c-1.525,0.002-2.763-1.232-2.765-2.757l-0.008-5.448
			c-0.002-1.525,1.232-2.763,2.757-2.765l5.804-0.008c1.525-0.002,2.763,1.232,2.765,2.757l0.008,5.448
			C435.492,91.861,434.257,93.099,432.732,93.101z"/>
		<path style="fill:#B1DCFB;" d="M330.5,360.21l-5.804,0.008c-1.525,0.002-2.763-1.233-2.765-2.758l-0.007-5.448
			c-0.002-1.525,1.232-2.763,2.757-2.765l5.804-0.008c1.525-0.002,2.763,1.232,2.765,2.757l0.007,5.448
			C333.26,358.969,332.025,360.207,330.5,360.21z"/>
		<path style="fill:#FFFFFF;" d="M40.825,324.882l-5.099,0.007c-1.34,0.002-2.427-1.083-2.429-2.423l-0.007-4.787
			c-0.002-1.34,1.083-2.427,2.423-2.429l5.099-0.007c1.34-0.002,2.427,1.083,2.429,2.423l0.007,4.786
			C43.25,323.793,42.165,324.88,40.825,324.882z"/>
		<path style="fill:#FFFFFF;" d="M443.099,254.816L438,254.823c-1.34,0.002-2.427-1.083-2.429-2.422l-0.007-4.787
			c-0.002-1.34,1.083-2.427,2.422-2.429l5.099-0.007c1.34-0.002,2.427,1.083,2.429,2.423l0.007,4.786
			C445.524,253.726,444.439,254.814,443.099,254.816z"/>
		<path style="fill:#FFFFFF;" d="M98.929,117.378H68.632c-1.991,0-3.605-1.614-3.605-3.604l0,0c0-1.991,1.614-3.605,3.605-3.605
			h30.297c1.991,0,3.604,1.614,3.604,3.605l0,0C102.533,115.765,100.919,117.378,98.929,117.378z"/>
		<path style="fill:#FFFFFF;" d="M460.559,71.683h-30.297c-1.991,0-3.605-1.614-3.605-3.604l0,0c0-1.991,1.614-3.605,3.605-3.605
			h30.297c1.991,0,3.604,1.614,3.604,3.605l0,0C464.163,70.069,462.55,71.683,460.559,71.683z"/>
		<path style="fill:#60A2F4;" d="M468.501,235.73h-30.297c-1.991,0-3.605-1.614-3.605-3.604l0,0c0-1.991,1.614-3.605,3.605-3.605
			h30.297c1.991,0,3.604,1.614,3.604,3.605l0,0C472.106,234.117,470.492,235.73,468.501,235.73z"/>
	</g>
</g>
</svg>
