<?xml version="1.0" encoding="utf-8"?>
<!-- Generator: Adobe Illustrator 27.5.0, SVG Export Plug-In . SVG Version: 6.00 Build 0)  -->
<svg version="1.1" xmlns="http://www.w3.org/2000/svg" xmlns:xlink="http://www.w3.org/1999/xlink" x="0px" y="0px"
	 viewBox="0 0 500 500" style="enable-background:new 0 0 500 500;" xml:space="preserve">
<g id="BACKGROUND">
	<g>
		<rect style="fill:#D6EDFF;" width="500" height="500"/>
	</g>
</g>
<g id="OBJECTS">
	<g>
		<g>
			<g>
				<polygon style="fill:#C5E8FF;" points="63.75,413.813 63.75,170.563 121.5,170.563 121.5,110.063 231.75,110.063 
					231.75,159.563 360.75,159.563 360.75,135.063 436.25,135.063 436.25,413.813 				"/>
			</g>
			<g>
				<polygon style="fill:#AEE2FF;" points="436.25,134.438 421.5,413.813 436.25,413.813 				"/>
			</g>
			<g>
				<polygon style="fill:#AEE2FF;" points="360.75,159.563 346,413.938 360.75,413.938 				"/>
			</g>
			<g>
				<polygon style="fill:#AEE2FF;" points="231.75,110.063 217,413.938 231.75,413.938 				"/>
			</g>
			<g>
				<polygon style="fill:#AEE2FF;" points="121.5,170.563 106.75,413.938 121.5,413.938 				"/>
			</g>
		</g>
		<g>
			<path style="fill:#262626;" d="M223.284,414.031c-0.067-0.143-6.803-14.543-12.207-31.642
				c-3.178-10.053-5.282-19.063-6.255-26.779c-1.222-9.698-0.65-17.388,1.701-22.856c1.995-4.64,5.298-7.749,9.815-9.243
				c7.303-2.414,15.916,0.506,24.907,8.444c4.663,4.117,8.329,8.619,10.156,11.018c-0.533-3.587-1.493-11.344-1.422-20.33
				c0.089-11.417,1.908-27.221,10.062-37.669c5.431-6.96,13.019-10.783,22.553-11.364c11.19-0.678,20.507,3.003,27.695,10.951
				c6.835,7.558,11.831,19.07,14.85,34.216c2.407,12.077,3.572,26.489,3.463,42.833c-0.186,27.81-4.055,51.918-4.094,52.159
				l-1.016-0.165c0.039-0.24,3.896-24.282,4.08-52.014c0.108-16.273-1.051-30.612-3.444-42.619
				c-2.982-14.958-7.895-26.303-14.603-33.72c-6.967-7.704-16.005-11.274-26.869-10.613c-9.227,0.561-16.563,4.252-21.804,10.969
				c-7.977,10.221-9.756,25.787-9.844,37.044c-0.096,12.235,1.73,22.154,1.748,22.253l-0.93,0.385
				c-0.046-0.067-4.637-6.718-11.276-12.577c-6.064-5.351-15.131-11.121-23.888-8.226c-4.226,1.397-7.319,4.315-9.193,8.672
				c-5.18,12.044-0.363,33.25,4.589,48.918c5.384,17.034,12.091,31.372,12.158,31.515L223.284,414.031z"/>
		</g>
		<g>
			<g>
				<path style="fill:#9AC4F8;" d="M171.765,413.813c10.261-17.634,16.008-38.698,12.985-58.875
					c-1.256-8.384-5.995-17.496-13.346-21.718c-7.004-4.022-16.277-2.345-22.742,2.495c-6.465,4.839-10.501,12.289-13.152,19.918
					c-0.503-7.563-2.759-17.695-5.509-24.945c-2.688-7.087-5.861-14.422-11.776-19.162c-5.915-4.74-14.238-6.837-21.331-4.164
					c-6.814,2.567-11.545,9.06-13.8,15.983c-2.255,6.924-2.394,14.332-2.513,21.612c-4.831-7.769-14.616-10.476-22.303-8.325
					c-7.687,2.15-13.239,9.317-15.253,17.041c-2.014,7.723-0.99,15.926,0.909,23.679c3.005,12.264,8.182,25.977,15.218,36.461"/>
			</g>
			<g>
				<path style="fill:#F48668;" d="M379.086,413.813c-10.946-9.236-17.803-23.152-18.459-37.459
					c-0.285-6.221,0.791-12.987,5.225-17.359c3.869-3.815,9.828-5.105,15.132-3.926c5.304,1.179,9.94,4.601,13.275,8.89
					c3.335,4.29,5.46,9.409,6.939,14.638c1.161-10.709,4.859-20.861,11.102-29.64c3.149-4.429,6.933-8.5,11.59-11.302
					c4.657-2.802,10.259-4.255,15.61-3.3c6.364,1.135,11.851,5.639,14.971,11.301c3.12,5.661,4.033,12.359,3.427,18.795
					s-2.655,12.656-5.163,18.614c-4.254,10.107-11.749,22.129-18.529,30.748"/>
			</g>
		</g>
		<g>
			<g>
				<path style="fill:#B2614E;" d="M341.326,132.333c0,0-14.157,8.848-21.014,5.088c-6.857-3.76-3.76-41.585-3.76-41.585
					s26.986,0,27.428,0c0.442,0,3.097,13.272,3.097,13.272s6.636,0.442,7.299,6.193c0.664,5.751-6.415,5.53-6.415,5.53l6.194,35.392
					h-24.553l1.991-21.677"/>
			</g>
			<g>
				<path style="fill:#302625;" d="M330.976,141.258l9.795-8.591c-1.389,0.816-5.207,2.953-9.405,4.362L330.976,141.258z"/>
			</g>
			<g>
				<path style="fill:#302625;" d="M321.548,123.332c-0.522-0.601-3.067-3.684-1.916-5.295c0.612-0.857,1.611-1.126,2.811-0.756
					c0.138,0.043,0.272,0.091,0.399,0.143l-0.706-7.497l1.226-0.116l0.939,9.978l-1.097-0.783c-0.017-0.012-1.836-1.282-2.57-0.254
					c-0.379,0.531,0.668,2.415,1.845,3.774L321.548,123.332z"/>
			</g>
			<g>
				<path style="fill:#302625;" d="M324.555,128.576l-0.059-1.229c0.637-0.03,1.252-0.315,1.687-0.782
					c0.435-0.467,0.676-1.1,0.662-1.738l1.23-0.028c0.022,0.956-0.34,1.906-0.992,2.605
					C326.431,128.103,325.51,128.531,324.555,128.576z"/>
			</g>
			<g>
				<ellipse style="fill:#302625;" cx="329.181" cy="112.312" rx="0.774" ry="1.88"/>
			</g>
			<g>
				<ellipse style="fill:#302625;" cx="317.526" cy="112.312" rx="0.774" ry="1.88"/>
			</g>
			<g>
				<path style="fill:#302625;" d="M348.005,115.544l-0.465-2.817l0.453-0.186c0.895-0.368,2.032-0.284,2.899,0.214l-0.613,1.067
					c-0.391-0.224-0.898-0.315-1.353-0.26l0.294,1.782L348.005,115.544z"/>
			</g>
			<g>
				<path style="fill:#61C9A8;" d="M330.49,118.239c-3.267,0-5.924-2.658-5.924-5.924s2.657-5.924,5.924-5.924
					c3.267,0,5.924,2.657,5.924,5.924S333.756,118.239,330.49,118.239z M330.49,107.621c-2.588,0-4.693,2.105-4.693,4.693
					c0,2.588,2.105,4.694,4.693,4.694c2.588,0,4.693-2.105,4.693-4.694C335.183,109.727,333.078,107.621,330.49,107.621z"/>
			</g>
			<g>
				<path style="fill:#61C9A8;" d="M316.716,118.239c-2.386,0-4.327-2.658-4.327-5.924s1.941-5.924,4.327-5.924
					c2.386,0,4.327,2.657,4.327,5.924S319.102,118.239,316.716,118.239z M316.716,107.621c-1.678,0-3.096,2.149-3.096,4.693
					c0,2.588,1.389,4.694,3.096,4.694s3.096-2.105,3.096-4.694C319.813,109.771,318.395,107.621,316.716,107.621z"/>
			</g>
			<g>
				<rect x="319.983" y="110.578" style="fill:#61C9A8;" width="5.198" height="1.231"/>
			</g>
			<g>
				
					<rect x="335.739" y="109.784" transform="matrix(0.9889 -0.1484 0.1484 0.9889 -12.6053 51.8329)" style="fill:#61C9A8;" width="10.699" height="1.231"/>
			</g>
			<g>
				<g>
					<path style="fill:#B2614E;" d="M268.015,239.338c0,0-7.985,4.42-11.2,6.38c-3.215,1.96-7.327,1.917-6.854,5.148
						c0.452,3.088,5.333,2.292,8.267,0.585c-3.218,6.074-6.044,12.453-4.782,14.16c1.154,1.562,2.741,0.171,2.741,0.171
						s0.004,1.487,1.405,1.833c1.4,0.346,2.97-1.495,2.97-1.495s-0.341,1.379,1.404,1.833c2.913,0.758,20.018-13.696,20.018-13.696
						L268.015,239.338z"/>
				</g>
				<g>
					<path style="fill:#262626;" d="M256.682,265.926l-0.988-0.287c0.052-0.18,1.317-4.467,4.507-9.083l0.847,0.585
						C257.957,261.613,256.694,265.883,256.682,265.926z"/>
				</g>
				<g>
					<path style="fill:#262626;" d="M261.024,266.347l-0.924-0.454c0.019-0.038,1.915-3.885,4.18-7.038l0.836,0.6
						C262.902,262.538,261.042,266.31,261.024,266.347z"/>
				</g>
				<g>
					<path style="fill:#262626;" d="M264.062,250.449c-1.143,0-2.284-0.248-3.307-0.754l0.456-0.922
						c2.122,1.05,4.83,0.814,6.739-0.587l0.609,0.83C267.27,249.961,265.664,250.449,264.062,250.449z"/>
				</g>
			</g>
			<g>
				<path style="fill:#9AC4F8;" d="M357.901,198.205c-0.387,0.54-0.784,1.083-1.192,1.624
					c-10.908,14.499-28.991,29.216-44.856,40.611c-17.217,12.359-31.825,20.806-31.825,20.806l-18.011-22.779l31.52-34.434
					c0,0,9.973-38.017,13.244-42.38c3.178-4.238,23.309-10.714,23.309-10.714c5.03,12.595,22.636-2.892,22.636-2.892
					L357.901,198.205z"/>
			</g>
			<g>
				<path style="fill:#FFB78F;" d="M183.444,129.684c0,0,14.157,8.848,21.014,5.088c6.857-3.76,3.76-41.585,3.76-41.585
					s-26.986,0-27.428,0s-3.097,13.272-3.097,13.272s-6.636,0.442-7.299,6.193c-0.664,5.751,6.415,5.53,6.415,5.53l-6.193,35.392
					h24.553l-1.991-21.677"/>
			</g>
			<g>
				<g>
					<path style="fill:#302625;" d="M160.425,404.208l0.122-1.136c0.278-2.587,1.197-6.199,2.626-8.436
						c0.357-0.559,0.809-1.19,1.45-1.63c0.765-0.523,1.669-0.661,2.419-0.369c0.937,0.364,1.574,1.419,1.551,2.566
						c-0.02,1.001-0.484,1.905-0.886,2.581c-1.475,2.482-3.701,4.578-6.267,5.901L160.425,404.208z M166.224,393.718
						c-0.292,0-0.614,0.105-0.905,0.304c-0.458,0.314-0.803,0.799-1.108,1.276c-1.113,1.742-1.895,4.422-2.272,6.684
						c1.913-1.21,3.561-2.891,4.711-4.827c0.344-0.58,0.699-1.268,0.713-1.978c0.011-0.54-0.249-1.192-0.766-1.393
						C166.483,393.74,166.357,393.718,166.224,393.718z"/>
				</g>
				<g>
					<path style="fill:#302625;" d="M163.8,404.151c-0.769,0-1.536-0.063-2.289-0.19l-1.127-0.19l0.779-0.836
						c1.583-1.699,4.174-3.786,6.396-4.621c0.559-0.21,1.224-0.42,1.929-0.39c0.846,0.036,1.583,0.432,1.974,1.06
						c0.487,0.783,0.377,1.906-0.269,2.732c-0.559,0.714-1.381,1.116-2.035,1.386C167.477,403.795,165.633,404.151,163.8,404.151z
						 M162.944,402.892c1.949,0.132,3.949-0.188,5.745-0.929c0.547-0.226,1.156-0.521,1.535-1.006
						c0.282-0.36,0.438-0.93,0.194-1.323c-0.173-0.278-0.549-0.462-0.982-0.481c-0.484-0.021-0.978,0.138-1.443,0.313
						C166.322,400.094,164.4,401.52,162.944,402.892z"/>
				</g>
				<g>
					<polygon style="fill:#FFB78F;" points="127.695,388.375 122.033,413.813 179.323,413.813 160.964,401.204 163.512,388.375 
											"/>
				</g>
				<g>
					<polygon style="fill:#302625;" points="160.964,401.204 125.65,397.56 122.033,413.813 179.323,413.813 					"/>
				</g>
				<g>
					<polygon style="fill:#302625;" points="127.695,388.375 162.528,393.33 163.512,388.375 					"/>
				</g>
				<g>
					<defs>
						<polygon id="SVGID_1_" points="160.964,401.204 125.65,397.56 122.033,413.813 179.323,413.813 						"/>
					</defs>
					<clipPath id="SVGID_00000024702757195344294150000008653345292998434999_">
						<use xlink:href="#SVGID_1_"  style="overflow:visible;"/>
					</clipPath>
					<g style="clip-path:url(#SVGID_00000024702757195344294150000008653345292998434999_);">
						<rect x="120.971" y="408.827" style="fill:#FFFFFF;" width="58.272" height="1.231"/>
					</g>
				</g>
			</g>
			<g>
				<g>
					<polygon style="fill:#B2614E;" points="386.621,388.375 392.282,413.813 334.992,413.813 353.352,401.204 350.803,388.375 
											"/>
				</g>
				<g>
					<polygon style="fill:#302625;" points="353.352,401.204 388.665,397.56 392.282,413.813 334.992,413.813 					"/>
				</g>
				<g>
					<polygon style="fill:#302625;" points="386.621,388.375 351.787,393.33 350.803,388.375 					"/>
				</g>
				<g>
					<defs>
						<polygon id="SVGID_00000101813654212435637930000005922970261488373937_" points="353.352,401.204 388.665,397.56 
							392.282,413.813 334.992,413.813 						"/>
					</defs>
					<clipPath id="SVGID_00000096751813847935013370000015501270221518277007_">
						<use xlink:href="#SVGID_00000101813654212435637930000005922970261488373937_"  style="overflow:visible;"/>
					</clipPath>
					<g style="clip-path:url(#SVGID_00000096751813847935013370000015501270221518277007_);">
						<path style="fill:#FFFFFF;" d="M381.55,416.904l-1.23-0.024c0.076-3.917,1.85-7.831,4.745-10.471
							c2.895-2.639,6.954-4.046,10.864-3.759l-0.09,1.228c-3.575-0.26-7.295,1.025-9.945,3.442
							C383.243,409.735,381.619,413.318,381.55,416.904z"/>
					</g>
				</g>
				<g>
					<path style="fill:#302625;" d="M353.352,401.204c0,0,0.179-6.595-2.47-5.536c-2.649,1.059-0.53,10.065-0.53,10.065"/>
				</g>
			</g>
			<g>
				<g>
					<polygon style="fill:#B2614E;" points="302.821,413.812 247.411,399.259 268.37,391.728 270.431,384.122 271.727,379.344 
						306.371,388.443 					"/>
				</g>
				<g>
					<polygon style="fill:#302625;" points="268.371,391.728 305.245,397.645 302.822,413.813 247.411,399.259 					"/>
				</g>
				<g>
					<polygon style="fill:#302625;" points="306.371,388.443 270.431,384.122 271.727,379.344 					"/>
				</g>
				<g>
					<defs>
						<polygon id="SVGID_00000018209619484745856860000010148047029796682372_" points="268.371,391.728 305.245,397.645 
							302.822,413.813 247.411,399.259 						"/>
					</defs>
					<clipPath id="SVGID_00000020370818815115865110000001060870146446587537_">
						<use xlink:href="#SVGID_00000018209619484745856860000010148047029796682372_"  style="overflow:visible;"/>
					</clipPath>
					<g style="clip-path:url(#SVGID_00000020370818815115865110000001060870146446587537_);">
						<path style="fill:#FFFFFF;" d="M291.656,414.076l-1.184-0.335c1.068-3.769,3.778-7.105,7.249-8.922
							c3.471-1.817,7.757-2.145,11.463-0.876l-0.398,1.164c-3.394-1.161-7.316-0.862-10.493,0.802
							C295.115,407.572,292.634,410.625,291.656,414.076z"/>
					</g>
				</g>
				<g>
					<path style="fill:#302625;" d="M268.371,391.728c0,0,1.849-6.333-0.982-5.982c-2.831,0.352-3.069,9.6-3.069,9.6"/>
				</g>
			</g>
			<g>
				<g>
					<path style="fill:#302625;" d="M229.557,404.208l0.122-1.136c0.278-2.587,1.198-6.199,2.626-8.436
						c0.357-0.559,0.809-1.19,1.45-1.63c0.765-0.523,1.669-0.661,2.419-0.369c0.937,0.364,1.574,1.419,1.551,2.566
						c-0.021,1.001-0.484,1.905-0.886,2.581c-1.475,2.482-3.7,4.578-6.268,5.901L229.557,404.208z M235.357,393.718
						c-0.292,0-0.614,0.105-0.905,0.304c-0.458,0.314-0.803,0.799-1.108,1.276c-1.112,1.742-1.895,4.422-2.272,6.684
						c1.914-1.21,3.561-2.891,4.711-4.827c0.345-0.58,0.699-1.268,0.713-1.978c0.011-0.54-0.249-1.192-0.766-1.393
						C235.615,393.74,235.489,393.718,235.357,393.718z"/>
				</g>
				<g>
					<path style="fill:#302625;" d="M232.932,404.151c-0.769,0-1.536-0.063-2.289-0.19l-1.127-0.19l0.779-0.836
						c1.583-1.699,4.174-3.787,6.396-4.621c0.559-0.21,1.225-0.421,1.929-0.39c0.846,0.036,1.583,0.432,1.974,1.06
						c0.487,0.783,0.376,1.906-0.269,2.732c-0.559,0.714-1.381,1.116-2.035,1.386C236.61,403.795,234.765,404.151,232.932,404.151z
						 M232.076,402.892c1.949,0.132,3.949-0.188,5.745-0.929c0.547-0.226,1.156-0.521,1.535-1.006
						c0.281-0.36,0.438-0.93,0.194-1.323c-0.173-0.278-0.549-0.462-0.982-0.48c-0.483-0.02-0.978,0.138-1.443,0.313
						C235.454,400.094,233.532,401.52,232.076,402.892z"/>
				</g>
				<g>
					<polygon style="fill:#FFB78F;" points="191.529,388.375 191.165,413.813 248.455,413.813 230.096,401.204 227.347,388.375 
											"/>
				</g>
				<g>
					<polygon style="fill:#302625;" points="230.096,401.204 191.339,397.56 191.165,413.813 248.455,413.813 					"/>
				</g>
				<g>
					<polygon style="fill:#302625;" points="227.347,388.374 191.528,388.374 228.407,393.319 					"/>
				</g>
				<g>
					<defs>
						<polygon id="SVGID_00000181773962469428451280000005277957192632959114_" points="230.096,401.204 191.339,397.56 
							191.165,413.813 248.455,413.813 						"/>
					</defs>
					<clipPath id="SVGID_00000016753933471913857470000001391972597763672961_">
						<use xlink:href="#SVGID_00000181773962469428451280000005277957192632959114_"  style="overflow:visible;"/>
					</clipPath>
					<g style="clip-path:url(#SVGID_00000016753933471913857470000001391972597763672961_);">
						<rect x="190.103" y="408.827" style="fill:#FFFFFF;" width="58.272" height="1.231"/>
					</g>
				</g>
			</g>
			<g>
				<path style="fill:#302625;" d="M193.793,138.61l-9.795-8.591c1.389,0.816,5.207,2.953,9.405,4.362L193.793,138.61z"/>
			</g>
			<g>
				<path style="fill:#302625;" d="M203.222,120.684l-0.93-0.806c1.177-1.359,2.224-3.243,1.845-3.774
					c-0.735-1.028-2.553,0.242-2.571,0.254l-1.094,0.775l0.938-9.97l1.225,0.115l-0.706,7.494c1.05-0.418,2.383-0.541,3.209,0.616
					C206.289,116.999,203.744,120.082,203.222,120.684z"/>
			</g>
			<g>
				<path style="fill:#302625;" d="M200.215,125.927c-0.955-0.046-1.877-0.473-2.529-1.172c-0.652-0.7-1.013-1.649-0.992-2.605
					l1.23,0.028c-0.015,0.638,0.227,1.271,0.662,1.738c0.435,0.466,1.05,0.752,1.687,0.782L200.215,125.927z"/>
			</g>
			<g>
				<path style="fill:#302625;" d="M196.363,109.663c0,1.038-0.347,1.88-0.774,1.88c-0.428,0-0.774-0.842-0.774-1.88
					s0.347-1.88,0.774-1.88C196.017,107.783,196.363,108.625,196.363,109.663z"/>
			</g>
			<g>
				<path style="fill:#302625;" d="M206.693,109.663c0,1.038-0.347,1.88-0.774,1.88s-0.774-0.842-0.774-1.88s0.347-1.88,0.774-1.88
					S206.693,108.625,206.693,109.663z"/>
			</g>
			<g>
				<g>
					<path style="fill:#FFB78F;" d="M124.596,257.152c-1.84,3.879-1.353,6.691,0.784,7.351c1.755,0.542,4.213-5.5,5.523-10.936
						c0.881-3.656,2.464-7.678,2.464-7.678l-18.891-10.602c0,0-8.351,22.175-6.558,24.588c1.074,1.445,2.223,0.613,2.223,0.613
						s-1.116,2.143-0.271,3.31c0.845,1.167,2.223,0.613,2.223,0.613s-0.693,1.99,1.186,2.474
						C115.332,267.413,120.178,262.407,124.596,257.152z"/>
				</g>
				<g>
					<path style="fill:#262626;" d="M112.411,264.815l-0.636-0.807c0.035-0.028,3.515-2.796,6.497-7.334l0.859,0.564
						C116.053,261.922,112.558,264.699,112.411,264.815z"/>
				</g>
				<g>
					<path style="fill:#262626;" d="M110.524,260.831l-0.766-0.685c0.028-0.031,2.823-3.167,4.847-6.371l0.869,0.549
						C113.403,257.602,110.552,260.799,110.524,260.831z"/>
				</g>
			</g>
			<g>
				<path style="fill:#302625;" d="M201.14,89.64c1.339-1.535,2.997-2.89,4.971-3.393c1.974-0.503,4.298,0.012,5.533,1.633
					c1.175,1.544,1.139,3.749,0.409,5.546c-0.731,1.797-2.204,3.48-3.5,4.923l-20.965,1.587c0,0-3.973,10.86-7.946,10.86
					c-3.708,0-2.727-21.72,1.059-21.72c2.384,0,2.311,2.109,2.311,2.109c2.214-2.635,5.559-4.492,8.992-4.727
					C195.436,86.224,198.588,87.331,201.14,89.64z"/>
			</g>
			<g>
				<path style="fill:#302625;" d="M176.765,112.895l-1.214-0.2l0.294-1.783c-0.456-0.055-0.963,0.036-1.353,0.26l-0.613-1.067
					c0.866-0.498,2.004-0.582,2.899-0.214l0.453,0.186L176.765,112.895z"/>
			</g>
			<g>
				<polygon style="fill:#F48668;" points="233.675,388.385 186.527,388.385 182.655,338.901 180.729,314.289 177.977,335.622 
					177.919,336.067 171.165,388.385 122.163,388.385 150.769,220.454 209.836,220.454 				"/>
			</g>
			<g>
				<polygon style="fill:#EA6142;" points="189.706,244.558 182.655,338.901 180.729,314.289 177.977,335.622 180.727,314.259 
					187.82,259.192 				"/>
			</g>
			<g>
				<path style="fill:#FFFFFF;" d="M268.903,206.416l-7.946,23.309c0,0-23.02-2.368-46.258-16.004
					c-1.621-0.951-3.247-1.96-4.863-3.025v9.758h-59.067l-16.157,30.99l-24.368-12.449c0,0,29.136-80.787,36.023-87.938
					c5.203-5.403,25.958-7.417,25.958-7.417s10.603,12.844,22.514,2.384c0,0,14.038,1.324,19.071,5.298
					c5.033,3.973,16.687,33.374,16.687,33.374L268.903,206.416z"/>
			</g>
			<g>
				<polygon style="fill:#EA6142;" points="153.307,220.455 148.282,235.288 150.77,220.455 				"/>
			</g>
			<g>
				<polygon style="fill:#F2F2F2;" points="165.867,183.372 153.307,220.455 150.77,220.455 				"/>
			</g>
			<g>
				<path style="fill:#F2F2F2;" d="M214.699,213.721c-1.621-0.951-3.247-1.96-4.863-3.025v-22.027L214.699,213.721z"/>
			</g>
			<g>
				<path style="fill:#302625;" d="M194.149,106.303l-0.771-0.959c0.699-0.567,2.446-1.296,4.046,0l-0.774,0.957
					C195.452,105.332,194.279,106.201,194.149,106.303z"/>
			</g>
			<g>
				<path style="fill:#302625;" d="M204.744,106.303l-0.771-0.959c0.7-0.567,2.446-1.296,4.046,0l-0.774,0.957
					C206.047,105.332,204.874,106.201,204.744,106.303z"/>
			</g>
			<g>
				<path style="fill:#75B1F2;" d="M356.709,199.829c-10.908,14.499-28.991,29.216-44.856,40.611l-11.694,0.675l-5.033-33.639
					l44.764-12.714l12.714-15.363L356.709,199.829z"/>
			</g>
			<g>
				<polyline style="fill:#61C9A8;" points="330.619,258.596 344.128,388.385 392.335,388.385 366.642,223.898 306.25,230.255 
					264.4,377.525 309.959,389.179 342.273,263.629 				"/>
			</g>
			<g>
				<path style="fill:#FFFFFF;" d="M383.614,388.468l-20.52-134.24c-1.549-0.102-2.949-0.787-4.17-2.041
					c-7.388-7.586-6.218-34.212-6.164-35.342l1.229,0.058c-0.013,0.271-1.2,27.22,5.817,34.425c1.13,1.16,2.378,1.712,3.806,1.68
					l0.54-0.011l20.679,135.283L383.614,388.468z"/>
			</g>
			<g>
				<path style="fill:#9AC4F8;" d="M352.603,179.399l-11.39,17.482l-43.439,12.449l4.503,27.282c0,0,53.24-1.324,68.337-14.568
					c14.52-12.736,12.184-59.597,6.887-64.365c-5.297-4.768-24.777-9.634-24.777-9.634"/>
			</g>
			<g>
				<g>
					<path style="fill:#FFB78F;" d="M282.267,215.303c3.376,0.354,8.154-0.922,7.3-3.924c-0.894-3.141-4.627-1.416-8.363-1.884
						c-3.736-0.468-12.831-1.225-12.831-1.225l-6.622,19.336c0,0,21.529,6.167,23.875,4.281c1.405-1.13,0.529-2.248,0.529-2.248
						s2.186,1.035,3.322,0.145c1.135-0.89,0.529-2.248,0.529-2.248s2.018,0.617,2.43-1.281
						C292.886,224.182,287.693,219.524,282.267,215.303z"/>
				</g>
				<g>
					<path style="fill:#262626;" d="M289.614,227.87c-0.029-0.034-2.932-3.411-7.585-6.221l0.532-0.881
						c4.803,2.902,7.715,6.292,7.836,6.435L289.614,227.87z"/>
				</g>
				<g>
					<path style="fill:#262626;" d="M285.827,230.036c-0.032-0.027-3.276-2.704-6.559-4.607l0.516-0.89
						c3.359,1.947,6.666,4.677,6.699,4.704L285.827,230.036z"/>
				</g>
				<g>
					<path style="fill:#262626;" d="M273.342,217.474c-0.502,0-1.004-0.051-1.497-0.156l0.215-1.006
						c2.314,0.495,4.882-0.4,6.387-2.228l0.794,0.654C277.819,216.466,275.576,217.474,273.342,217.474z"/>
				</g>
				<g>
					<g>
						<path style="fill:#B2614E;" d="M297.775,209.33l3.708,21.985c0,0-23.378,1.46-25.282-0.872
							c-1.141-1.396-0.052-2.309-0.052-2.309s-2.353,0.56-3.28-0.546c-0.926-1.106-0.052-2.309-0.052-2.309
							s-2.102,0.186-2.112-1.756c-0.011-2.123,6.034-5.604,12.217-8.609"/>
					</g>
					<g>
						<path style="fill:#262626;" d="M273.131,225.687l-0.629-0.815c0.149-0.115,3.699-2.829,8.999-4.673l0.338,0.972
							C276.696,222.961,273.166,225.66,273.131,225.687z"/>
					</g>
					<g>
						<path style="fill:#262626;" d="M276.388,228.59l-0.478-0.911c0.038-0.02,3.839-2.006,7.528-3.215l0.32,0.978
							C280.152,226.623,276.425,228.57,276.388,228.59z"/>
					</g>
				</g>
				<g>
					<path style="fill:#FFB78F;" d="M282.267,215.303c3.376,0.354,8.154-0.922,7.3-3.924c-0.894-3.141-4.627-1.416-8.363-1.884
						c-3.736-0.468-12.831-1.225-12.831-1.225"/>
				</g>
			</g>
			<g>
				<polygon style="fill:#37B78D;" points="330.619,258.596 328.945,315.414 334.348,294.422 				"/>
			</g>
			<g>
				<polygon style="fill:#75B1F2;" points="311.743,203.998 314.991,187.61 314.653,203.818 				"/>
			</g>
			<g>
				<polygon style="fill:#61C9A8;" points="170.601,168.804 188.15,168.804 188.15,185.413 179.376,191.053 170.601,185.413 				"/>
			</g>
			<g>
				
					<rect x="62.014" y="303.88" transform="matrix(0.1611 -0.9869 0.9869 0.1611 -177.1392 400.5894)" style="fill:#302625;" width="170.119" height="1.231"/>
			</g>
			<g>
				
					<rect x="212.871" y="219.859" transform="matrix(0.991 -0.1342 0.1342 0.991 -38.9402 31.4112)" style="fill:#FFFFFF;" width="1.231" height="169.281"/>
			</g>
			<g>
				<rect x="124.313" y="375.146" style="fill:#FFFFFF;" width="40.312" height="1.231"/>
			</g>
			<g>
				<rect x="185.555" y="375.146" style="fill:#302625;" width="42.82" height="1.231"/>
			</g>
			<g>
				
					<rect x="124.938" y="224.18" transform="matrix(0.4232 -0.906 0.906 0.4232 -143.5924 251.2592)" style="fill:#302625;" width="1.231" height="28.466"/>
			</g>
			<g>
				
					<rect x="243.716" y="214.768" transform="matrix(0.3154 -0.949 0.949 0.3154 -28.1595 391.7333)" style="fill:#302625;" width="27.424" height="1.231"/>
			</g>
			<g>
				<rect x="170.601" y="171.863" style="fill:#FFFFFF;" width="17.549" height="1.231"/>
			</g>
			<g>
				
					<rect x="290.114" y="346.915" transform="matrix(0.2616 -0.9652 0.9652 0.2616 -142.6957 553.9827)" style="fill:#FFFFFF;" width="1.231" height="46.682"/>
			</g>
			<g>
				<rect x="342.876" y="375.848" style="fill:#262626;" width="47.581" height="1.029"/>
			</g>
			<g>
				<defs>
					<path id="SVGID_00000176028968732319845560000008978168564382597291_" d="M377.502,157.679
						c-5.297-4.768-24.777-9.634-24.777-9.634v0.001c-0.022,0.019-17.609,15.479-22.636,2.892c0,0-20.13,6.476-23.309,10.714
						c-3.271,4.362-13.244,42.38-13.244,42.38l-31.52,34.434l18.011,22.779c0,0,14.608-8.447,31.825-20.806
						c2.151-1.545,4.342-3.152,6.551-4.81c16.954-1.472,42.489-5.058,52.211-13.586
						C385.134,209.307,382.799,162.447,377.502,157.679z"/>
				</defs>
				<clipPath id="SVGID_00000120517283488091244410000009101898037183817636_">
					<use xlink:href="#SVGID_00000176028968732319845560000008978168564382597291_"  style="overflow:visible;"/>
				</clipPath>
				<g style="clip-path:url(#SVGID_00000120517283488091244410000009101898037183817636_);">
					<path style="fill:#FFFFFF;" d="M336.605,161.987c-3.016,0-5.79-1.035-7.702-2.895c-2.374-2.308-3.193-5.869-1.991-8.659
						l1.13,0.487c-0.988,2.295-0.265,5.36,1.719,7.289c1.829,1.779,4.585,2.699,7.551,2.525c2.472-0.144,5.068-0.998,7.937-2.608
						c5.829-3.273,10.596-8.41,13.426-14.467l1.115,0.521c-2.937,6.288-7.887,11.622-13.938,15.019
						c-3.035,1.704-5.805,2.608-8.468,2.764C337.123,161.98,336.863,161.987,336.605,161.987z"/>
				</g>
			</g>
			<g>
				<path style="fill:#302625;" d="M341.759,93.834c0,0,1.044-2.638,2.898-2.373c3.748,0.535,4.18,21.984,0.472,21.984
					c-3.973,0-6.829-12.979-6.829-12.979c-4.768,4.503-12.413,4.079-15.628-0.53c-3.672,1.96-11.125,0-10.4-5.457
					c0.641-4.831,8.281-6.992,13.546-2.471C330.884,87.488,338.83,88.812,341.759,93.834z"/>
			</g>
			<g>
				
					<rect x="309.619" y="206.288" transform="matrix(0.9866 -0.1633 0.1633 0.9866 -31.9716 53.6128)" style="fill:#262626;" width="1.029" height="29.995"/>
			</g>
			<g>
				
					<rect x="277.318" y="228.378" transform="matrix(0.8012 -0.5984 0.5984 0.8012 -90.8874 214.8107)" style="fill:#262626;" width="1.029" height="31.613"/>
			</g>
		</g>
		<g>
			<path style="fill:#262626;" d="M423.191,414.008c-4.518-11.029-5.061-23.778-1.532-35.168
				c-12.388-7.324-19.409-22.864-16.701-37.001l1.011,0.194c-2.615,13.648,4.111,28.643,16.014,35.802
				c0.012-0.038,0.025-0.076,0.038-0.114c1.776-5.283,4.063-8.674,7.198-10.672c3.648-2.324,9.537-2.229,12.155,1.622
				c1.21,1.78,1.472,4.032,0.736,6.341c-0.912,2.862-3.154,5.263-5.851,6.267c-5.092,1.896-10.485-0.191-13.683-1.92
				c-3.388,11.111-2.834,23.516,1.567,34.259L423.191,414.008z M422.893,378.359c3.007,1.656,8.196,3.746,13.007,1.955
				c2.371-0.882,4.423-3.087,5.229-5.615c0.638-2.001,0.422-3.936-0.607-5.449c-2.288-3.365-7.503-3.403-10.751-1.333
				c-2.926,1.865-5.079,5.084-6.776,10.132C422.961,378.152,422.927,378.255,422.893,378.359z"/>
		</g>
		<g>
			<path style="fill:#FFFFFF;" d="M411.696,338.155c-0.054-2.581-1.832-5.059-4.283-5.869c-2.019-0.668-4.384-0.137-5.957,1.284
				c-1.835,1.658-2.269,4.144-1.886,6.449c0.578,3.474,4.292,6.095,8.194,4.311C410.111,343.258,411.75,340.748,411.696,338.155z"/>
		</g>
		<g>
			<path style="fill:#FFFFFF;" d="M102.763,414.94l-1.084-0.586c-10.15-5.491-18.547-14.217-23.645-24.571
				c-5.098-10.353-6.894-22.33-5.057-33.723l0.202-1.255l0.859,0.938c15.317,16.721,25.453,37.312,28.542,57.979L102.763,414.94z
				 M74.002,357.535c-1.467,10.757,0.341,21.965,5.136,31.705c4.801,9.751,12.596,18.027,22.031,23.422
				C97.966,393.046,88.365,373.563,74.002,357.535z"/>
		</g>
		<g>
			<path style="fill:#262626;" d="M102.701,413.767l-1.027-0.064c1.887-30.306-5.763-61.282-21.543-87.225l0.879-0.535
				C96.898,352.064,104.601,383.253,102.701,413.767z"/>
		</g>
		<g>
			<path style="fill:#FFFFFF;" d="M253.585,307.626c-2.64,0-5.189-1.229-7.025-3.119c-3.098-3.189-4.406-8.61,0.046-12.98
				c1.688-1.657,4.138-2.58,6.703-2.559c2.572,0.031,4.992,1.021,6.64,2.717c1.648,1.696,2.569,4.144,2.525,6.716
				c-0.044,2.572-1.046,4.987-2.751,6.627C257.826,306.854,255.676,307.626,253.585,307.626z M253.186,290.198
				c-2.207,0-4.286,0.801-5.718,2.207c-2.79,2.738-3.88,7.277-0.025,11.243c2.867,2.95,7.713,4.066,11.428,0.492l0,0
				c1.47-1.414,2.335-3.513,2.373-5.76c0.038-2.247-0.756-4.375-2.177-5.837c-1.421-1.463-3.525-2.317-5.772-2.344
				C253.259,290.199,253.223,290.198,253.186,290.198z"/>
		</g>
		<g>
			<path style="fill:#FFFFFF;" d="M441.048,271.334c3.33-3.204,3.43-9.156,0.21-12.47c-3.22-3.314-9.173-3.384-12.471-0.148
				C420.565,266.787,433.083,278.996,441.048,271.334z"/>
		</g>
		<g>
			<path style="fill:#61C9A8;" d="M75.048,306.834c3.33-3.204,3.43-9.156,0.21-12.47c-3.22-3.314-9.173-3.384-12.471-0.148
				C54.565,302.287,67.083,314.496,75.048,306.834z"/>
		</g>
		<g>
			<rect x="40.75" y="413.072" style="fill:#302625;" width="418.5" height="1.231"/>
		</g>
	</g>
</g>
<g id="DESIGNED_BY_FREEPIK">
	<g>
		<g id="XMLID_1_">
			<g id="XMLID_20_">
				<g id="XMLID_28_">
					<path style="fill:#102129;" d="M260.104,465.465c-0.432,0.443-0.803,0.931-1.108,1.453l-0.465-0.241
						c-0.067-0.298-0.349-0.503-0.659-0.466c-0.331,0.039-0.568,0.339-0.529,0.67s0.339,0.568,0.67,0.529
						c0.065-0.008,0.127-0.026,0.184-0.052l0.452,0.234c-0.251,0.554-0.433,1.139-0.539,1.744l0.746,0.132
						c0.23-1.306,0.85-2.507,1.792-3.473L260.104,465.465z"/>
				</g>
				<g id="XMLID_27_">
					<path style="fill:#102129;" d="M265.592,463.163c-0.171,0-0.341,0.006-0.51,0.017l-0.074-0.626
						c0.188-0.149,0.296-0.389,0.266-0.645c-0.046-0.393-0.402-0.674-0.795-0.628s-0.674,0.402-0.628,0.795
						c0.03,0.254,0.189,0.461,0.405,0.564l0.073,0.624c-0.714,0.116-1.403,0.332-2.06,0.646l0.327,0.684
						c0.934-0.447,1.942-0.673,2.995-0.673c0.496,0,0.993,0.053,1.475,0.158l0.161-0.741
						C266.693,463.222,266.142,463.163,265.592,463.163z"/>
				</g>
				<g id="XMLID_26_">
					<path style="fill:#102129;" d="M272.194,465.711c0.331-0.04,0.566-0.341,0.525-0.672c-0.04-0.331-0.341-0.566-0.672-0.526
						c-0.309,0.038-0.535,0.304-0.53,0.609l-0.416,0.363c-0.418-0.43-0.89-0.813-1.408-1.139l-0.404,0.641
						c1.134,0.715,2.021,1.726,2.563,2.925l0.69-0.313c-0.251-0.554-0.568-1.072-0.942-1.545l0.402-0.351
						C272.065,465.716,272.129,465.719,272.194,465.711z"/>
				</g>
				<g id="XMLID_25_">
					<path style="fill:#102129;" d="M265.044,473.372c-0.386,0.023-0.775,0.035-1.157,0.035c-0.88,0-1.733-0.061-2.478-0.179
						c-0.39-0.062-0.846-0.155-1.27-0.292c1.046,1.861,3.069,3.125,5.388,3.125c2.855,0,5.262-1.916,5.95-4.504
						c-0.682,0.449-1.505,0.825-2.459,1.123C267.839,473.047,266.464,473.286,265.044,473.372z"/>
				</g>
				<g id="XMLID_21_">
					<path style="fill:#102129;" d="M265.592,464.68c-3.352,0-6.08,2.666-6.08,5.943c0,0.426,0.046,0.849,0.137,1.261
						c0.673,0.483,2.706,0.89,5.347,0.731c2.879-0.173,5.297-0.957,6.672-2.159c-0.005-0.195-0.021-0.39-0.045-0.582
						C271.244,466.913,268.651,464.68,265.592,464.68z M263.432,471.194c-1.02,0-1.85-0.83-1.85-1.85c0-1.02,0.83-1.85,1.85-1.85
						c1.02,0,1.85,0.83,1.85,1.85C265.282,470.365,264.452,471.194,263.432,471.194z M268.17,470.286c-0.75,0-1.36-0.61-1.36-1.36
						s0.61-1.361,1.36-1.361c0.75,0,1.361,0.61,1.361,1.361S268.92,470.286,268.17,470.286z"/>
				</g>
			</g>
			<g id="XMLID_18_">
				<path style="fill:#102129;" d="M281.595,466.547c-0.295-0.116-0.806-0.309-1.382-0.237c-0.551,0.069-0.844,0.341-0.844,1.007
					v0.866h2.228v1.717h-2.228v5.455h-1.932v-5.455h-1.34v-1.717h1.34v-0.888c0-1.68,0.895-2.783,2.568-2.783
					c0.642,0,1.157,0.122,1.59,0.308L281.595,466.547z"/>
			</g>
			<g id="XMLID_16_">
				<path style="fill:#102129;" d="M286.298,469.879c-0.177-0.03-0.358-0.046-0.526-0.046c-0.896,0-1.51,0.548-1.51,1.614v3.908
					h-1.932v-7.172h1.873v0.785c0.451-0.673,1.14-0.977,2.021-0.977c0.414,0,0.848,0.128,1.094,0.337L286.298,469.879z"/>
			</g>
			<g id="XMLID_13_">
				<path style="fill:#102129;" d="M293.965,471.757c0,0.222-0.015,0.489-0.037,0.651h-5.085c0.207,1.036,0.933,1.488,1.843,1.488
					c0.622,0,1.295-0.252,1.813-0.688l1.133,1.243c-0.814,0.748-1.85,1.088-3.057,1.088c-2.198,0-3.723-1.495-3.723-3.753
					c0-2.258,1.48-3.797,3.626-3.797C292.544,467.99,293.958,469.522,293.965,471.757z M288.851,471.091h3.175
					c-0.178-0.918-0.733-1.436-1.562-1.436C289.554,469.655,289.021,470.203,288.851,471.091z"/>
			</g>
			<g id="XMLID_10_">
				<path style="fill:#102129;" d="M301.618,471.757c0,0.222-0.015,0.489-0.037,0.651h-5.085c0.207,1.036,0.932,1.488,1.843,1.488
					c0.622,0,1.295-0.252,1.813-0.688l1.132,1.243c-0.814,0.748-1.85,1.088-3.057,1.088c-2.198,0-3.723-1.495-3.723-3.753
					c0-2.258,1.48-3.797,3.627-3.797C300.197,467.99,301.611,469.522,301.618,471.757z M296.504,471.091h3.175
					c-0.178-0.918-0.733-1.436-1.562-1.436C297.207,469.655,296.674,470.203,296.504,471.091z"/>
			</g>
			<g id="XMLID_7_">
				<path style="fill:#102129;" d="M309.964,471.764c0,2.154-1.495,3.775-3.471,3.775c-0.962,0-1.643-0.378-2.109-0.933v3.708
					h-1.924v-10.133h1.887v0.792c0.466-0.585,1.155-0.984,2.139-0.984C308.469,467.99,309.964,469.61,309.964,471.764z
					 M304.287,471.764c0,1.132,0.747,1.976,1.843,1.976c1.14,0,1.85-0.881,1.85-1.976c0-1.095-0.711-1.976-1.85-1.976
					C305.035,469.788,304.287,470.632,304.287,471.764z"/>
			</g>
			<g id="XMLID_4_">
				<path style="fill:#102129;" d="M313.068,465.836c0,0.696-0.54,1.229-1.236,1.229c-0.696,0-1.229-0.533-1.229-1.229
					c0-0.696,0.533-1.243,1.229-1.243C312.527,464.592,313.068,465.14,313.068,465.836z M312.809,475.354h-1.932v-7.172h1.932
					V475.354z"/>
			</g>
			<g id="XMLID_2_">
				<path style="fill:#102129;" d="M316.032,470.736l2.702-2.554h2.368l-3.479,3.375l3.501,3.797h-2.376l-2.716-2.901v2.901H314.1
					v-10.658h1.932V470.736z"/>
			</g>
		</g>
		<g>
			<g>
				<path style="fill:#102129;" d="M184.412,475.289v-1.055c-0.527,0.718-1.391,1.23-2.387,1.23c-1.846,0-3.149-1.406-3.149-3.706
					c0-2.256,1.289-3.721,3.149-3.721c0.952,0,1.816,0.469,2.387,1.245v-3.765h1.099v9.77H184.412z M184.412,473.37v-3.208
					c-0.395-0.615-1.245-1.143-2.124-1.143c-1.421,0-2.27,1.172-2.27,2.739c0,1.567,0.85,2.724,2.27,2.724
					C183.168,474.483,184.017,473.986,184.412,473.37z"/>
			</g>
			<g>
				<path style="fill:#102129;" d="M186.932,471.744c0-2.051,1.465-3.706,3.486-3.706c2.139,0,3.398,1.67,3.398,3.794v0.279h-5.727
					c0.088,1.333,1.025,2.446,2.549,2.446c0.805,0,1.626-0.322,2.182-0.894l0.527,0.718c-0.703,0.703-1.655,1.084-2.812,1.084
					C188.44,475.465,186.932,473.956,186.932,471.744z M190.403,468.947c-1.509,0-2.256,1.274-2.314,2.358h4.643
					C192.718,470.25,192.015,468.947,190.403,468.947z"/>
			</g>
			<g>
				<path style="fill:#102129;" d="M194.607,474.351l0.571-0.791c0.469,0.542,1.362,1.011,2.329,1.011
					c1.084,0,1.67-0.513,1.67-1.216c0-1.714-4.38-0.659-4.38-3.281c0-1.098,0.952-2.036,2.636-2.036
					c1.201,0,2.051,0.454,2.622,1.026l-0.513,0.762c-0.424-0.513-1.201-0.894-2.109-0.894c-0.967,0-1.567,0.483-1.567,1.113
					c0,1.552,4.38,0.527,4.38,3.281c0,1.187-0.952,2.138-2.783,2.138C196.306,475.465,195.325,475.113,194.607,474.351z"/>
			</g>
			<g>
				<path style="fill:#102129;" d="M201.477,466.471c0-0.41,0.337-0.747,0.732-0.747c0.41,0,0.747,0.337,0.747,0.747
					c0,0.41-0.337,0.732-0.747,0.732C201.814,467.203,201.477,466.881,201.477,466.471z M201.667,475.289v-7.075h1.099v7.075
					H201.667z"/>
			</g>
			<g>
				<path style="fill:#102129;" d="M204.582,477.105l0.556-0.82c0.586,0.703,1.289,0.967,2.3,0.967c1.172,0,2.27-0.571,2.27-2.124
					v-1.011c-0.513,0.718-1.377,1.26-2.373,1.26c-1.845,0-3.149-1.377-3.149-3.662c0-2.27,1.289-3.677,3.149-3.677
					c0.952,0,1.802,0.469,2.373,1.245v-1.069h1.098v6.87c0,2.344-1.641,3.076-3.369,3.076
					C206.237,478.16,205.417,477.926,204.582,477.105z M209.709,473.253v-3.091c-0.381-0.615-1.23-1.143-2.109-1.143
					c-1.421,0-2.27,1.128-2.27,2.695c0,1.553,0.849,2.695,2.27,2.695C208.478,474.41,209.328,473.868,209.709,473.253z"/>
			</g>
			<g>
				<path style="fill:#102129;" d="M217.413,475.289v-4.629c0-1.245-0.63-1.641-1.582-1.641c-0.865,0-1.685,0.527-2.095,1.099v5.17
					h-1.099v-7.075h1.099v1.025c0.498-0.586,1.465-1.201,2.519-1.201c1.48,0,2.256,0.747,2.256,2.285v4.966H217.413z"/>
			</g>
			<g>
				<path style="fill:#102129;" d="M219.932,471.744c0-2.051,1.465-3.706,3.486-3.706c2.139,0,3.398,1.67,3.398,3.794v0.279h-5.727
					c0.088,1.333,1.025,2.446,2.549,2.446c0.806,0,1.626-0.322,2.183-0.894l0.527,0.718c-0.703,0.703-1.655,1.084-2.812,1.084
					C221.441,475.465,219.932,473.956,219.932,471.744z M223.404,468.947c-1.509,0-2.256,1.274-2.314,2.358h4.643
					C225.718,470.25,225.015,468.947,223.404,468.947z"/>
			</g>
			<g>
				<path style="fill:#102129;" d="M233.35,475.289v-1.055c-0.527,0.718-1.392,1.23-2.388,1.23c-1.846,0-3.149-1.406-3.149-3.706
					c0-2.256,1.289-3.721,3.149-3.721c0.952,0,1.817,0.469,2.388,1.245v-3.765h1.098v9.77H233.35z M233.35,473.37v-3.208
					c-0.396-0.615-1.245-1.143-2.124-1.143c-1.421,0-2.27,1.172-2.27,2.739c0,1.567,0.849,2.724,2.27,2.724
					C232.105,474.483,232.954,473.986,233.35,473.37z"/>
			</g>
			<g>
				<path style="fill:#102129;" d="M239.692,475.289v-9.77h1.098v3.765c0.572-0.776,1.421-1.245,2.388-1.245
					c1.845,0,3.149,1.465,3.149,3.721c0,2.299-1.304,3.706-3.149,3.706c-0.996,0-1.86-0.513-2.388-1.23v1.055H239.692z
					 M242.9,474.483c1.436,0,2.285-1.157,2.285-2.724c0-1.568-0.85-2.739-2.285-2.739c-0.864,0-1.728,0.527-2.109,1.143v3.208
					C241.171,473.986,242.036,474.483,242.9,474.483z"/>
			</g>
			<g>
				<path style="fill:#102129;" d="M247.528,477.061c0.161,0.073,0.425,0.117,0.601,0.117c0.483,0,0.805-0.161,1.055-0.747
					l0.469-1.069l-2.959-7.148h1.187l2.358,5.8l2.344-5.8h1.201l-3.545,8.51c-0.425,1.025-1.143,1.421-2.08,1.435
					c-0.234,0-0.601-0.044-0.806-0.103L247.528,477.061z"/>
			</g>
		</g>
	</g>
</g>
</svg>
